
<svg width="95px" height="65px" viewBox="0 0 95 65" version="1.1" xmlns="http://www.w3.org/2000/svg" xmlns:xlink="http://www.w3.org/1999/xlink">
    <g id="Page-1" stroke="none" stroke-width="1" fill="none" fill-rule="evenodd">
        <g id="couples" fill="#97D88A" fill-rule="nonzero">
            <path d="M67.6,29.2 C74.7,29.2 80.5,23.4 80.5,16.2 C80.5,9 74.7,3.2 67.6,3.2 C60.5,3.2 54.7,9 54.7,16.2 C54.7,23.4 60.5,29.2 67.6,29.2 M67.6,32.5 C58.7,32.5 51.5,25.2 51.5,16.3 C51.5,7.4 58.7,0 67.6,0 C76.5,0 83.7,7.3 83.7,16.2 C83.7,25.1 76.5,32.5 67.6,32.5 M95,63.4 C95,64.3 94.3,65 93.4,65 C92.5,65 91.8,64.3 91.8,63.4 C91.8,49.9 81,39 67.6,39 C54.2,39 43.5,49.9 43.5,63.4 C43.5,64.3 42.8,65 41.9,65 C41,65 40.3,64.3 40.3,63.4 C40.3,48.1 52.6,35.8 67.7,35.8 C82.7,35.8 95,48.1 95,63.4" id="Shape"></path>
            <path d="M27.4,29.2 C34.5,29.2 40.3,23.4 40.3,16.2 C40.3,9 34.5,3.2 27.4,3.2 C20.3,3.2 14.5,9 14.5,16.2 C14.5,23.4 20.3,29.2 27.4,29.2 M27.4,32.5 C18.5,32.5 11.3,25.2 11.3,16.3 C11.3,7.4 18.5,0 27.4,0 C36.3,0 43.5,7.3 43.5,16.2 C43.5,25.1 36.3,32.5 27.4,32.5 M54.7,63.4 C54.7,64.3 54,65 53.1,65 C52.2,65 51.5,64.3 51.5,63.4 C51.5,49.9 40.7,39 27.4,39 C14.1,39 3.2,49.9 3.2,63.4 C3.2,64.3 2.5,65 1.6,65 C0.7,65 0,64.3 0,63.4 C0,48.1 12.3,35.8 27.4,35.8 C42.5,35.8 54.7,48.1 54.7,63.4" id="Shape"></path>
        </g>
    </g>
</svg>