<?xml version="1.0" encoding="utf-8"?>
<!-- Generator: Adobe Illustrator 22.1.0, SVG Export Plug-In . SVG Version: 6.00 Build 0)  -->
<svg version="1.1" id="Layer_1" xmlns="http://www.w3.org/2000/svg" xmlns:xlink="http://www.w3.org/1999/xlink" x="0px" y="0px"
	 viewBox="0 0 95 65" style="enable-background:new 0 0 95 65;" xml:space="preserve">
<style type="text/css">
	.st0{fill:#FFBB9B;}
</style>
<g>
	<path class="st0" d="M67.6,29.2c7.1,0,12.9-5.8,12.9-13s-5.8-13-12.9-13S54.7,9,54.7,16.2S60.5,29.2,67.6,29.2 M67.6,32.5
		c-8.9,0-16.1-7.3-16.1-16.2S58.7,0,67.6,0s16.1,7.3,16.1,16.2S76.5,32.5,67.6,32.5 M95,63.4c0,0.9-0.7,1.6-1.6,1.6
		s-1.6-0.7-1.6-1.6C91.8,49.9,81,39,67.6,39S43.5,49.9,43.5,63.4c0,0.9-0.7,1.6-1.6,1.6c-0.9,0-1.6-0.7-1.6-1.6
		c0-15.3,12.3-27.6,27.4-27.6C82.7,35.8,95,48.1,95,63.4"/>
	<path class="st0" d="M27.4,29.2c7.1,0,12.9-5.8,12.9-13s-5.8-13-12.9-13S14.5,9,14.5,16.2S20.3,29.2,27.4,29.2 M27.4,32.5
		c-8.9,0-16.1-7.3-16.1-16.2S18.5,0,27.4,0s16.1,7.3,16.1,16.2S36.3,32.5,27.4,32.5 M54.7,63.4c0,0.9-0.7,1.6-1.6,1.6
		s-1.6-0.7-1.6-1.6C51.5,49.9,40.7,39,27.4,39S3.2,49.9,3.2,63.4c0,0.9-0.7,1.6-1.6,1.6S0,64.3,0,63.4c0-15.3,12.3-27.6,27.4-27.6
		C42.5,35.8,54.7,48.1,54.7,63.4"/>
</g>
</svg>
