
<svg width="56px" height="65px" viewBox="0 0 56 65" version="1.1" xmlns="http://www.w3.org/2000/svg" xmlns:xlink="http://www.w3.org/1999/xlink">
    <g id="Page-1" stroke="none" stroke-width="1" fill="none" fill-rule="evenodd">
        <g id="individuals" fill="#97D88A" fill-rule="nonzero">
            <path d="M28.1,29.2 C35.3,29.2 41.1,23.4 41.1,16.2 C41.1,9 35.3,3.2 28.1,3.2 C20.9,3.2 15.1,9 15.1,16.2 C15.1,23.4 20.9,29.2 28.1,29.2 M28.1,32.5 C19.1,32.5 11.9,25.2 11.9,16.3 C11.9,7.4 19.2,0 28.1,0 C37,0 44.3,7.3 44.3,16.2 C44.3,25.1 37.1,32.5 28.1,32.5 M55.8,63.4 C55.8,64.3 55.1,65 54.2,65 C53.3,65 52.6,64.3 52.6,63.4 C52.5,49.9 41.6,39 28.1,39 C14.6,39 3.8,49.9 3.8,63.4 C3.8,64.3 3.1,65 2.2,65 C1.3,65 0.6,64.3 0.6,63.4 C0.6,48.1 13,35.8 28.2,35.8 C43.4,35.8 55.8,48.1 55.8,63.4" id="Shape"></path>
        </g>
    </g>
</svg>