<svg width="100%" height="auto" viewBox="0 0 400 120" version="1.1" xmlns="http://www.w3.org/2000/svg" xmlns:xlink="http://www.w3.org/1999/xlink">
    <g id="Page-1" stroke="none" stroke-width="1" fill="none" fill-rule="evenodd">
        <g id="RI_Logo_black" fill="#000000" fill-rule="nonzero">
            <path d="M379.448622,68.8 L367.819549,72 L367.819549,72.5 C371.729323,72.2 372.631579,73 372.631579,76.8 L372.631579,114.7 C372.631579,117.2 371.428571,118.1 367.819549,118.6 L367.819549,119.1 L384.260652,119.1 L384.260652,118.6 C380.651629,118.1 379.448622,117.3 379.448622,114.7 L379.448622,68.8 L379.448622,68.8 Z M346.867168,116.7 C342.957393,116.7 340.952381,113.6 340.952381,109.7 C340.952381,107.8 341.253133,106.7 342.155388,105 C343.157895,103.3 345.363409,102 348.671679,101.4 L353.383459,100.5 L353.383459,112 C352.280702,115.1 350.075188,116.7 346.867168,116.7 L346.867168,116.7 Z M366.817043,112.7 C366.015038,115.3 364.711779,116.6 362.907268,116.6 C361.203008,116.6 360.200501,115.1 360.200501,112.6 L360.200501,96.8 C360.200501,88.3 356.190476,83.5 348.270677,83.5 C341.052632,83.5 336.0401,88.2 335.137845,95.6 L335.639098,95.7 C336.842105,90.4 340.250627,87.5 345.162907,87.5 C350.676692,87.5 353.483709,90.8 353.483709,97.4 L353.483709,99.2 L346.365915,100.6 C338.245614,102.3 334.135338,106 334.135338,111.7 C334.135338,116.4 337.64411,120 343.558897,120 C348.77193,120 352.681704,116.6 353.58396,113.1 L353.684211,114.1 C353.884712,117.7 355.989975,120 359.498747,120 C363.709273,120 366.315789,117.6 367.518797,112.8 L366.817043,112.7 Z M325.914787,94.6 C325.914787,87.7 322.506266,83.5 315.789474,83.5 C310.47619,83.5 306.165414,86.7 305.062657,91.1 L305.062657,83.8 L293.433584,86.9 L293.433584,87.4 C297.343358,87.1 298.245614,87.9 298.245614,91.8 L298.245614,114.7 C298.245614,117.2 297.042607,118.1 293.433584,118.6 L293.433584,119.1 L309.473684,119.1 L309.473684,118.6 C305.964912,118.1 305.062657,117.5 305.062657,115 L305.062657,91.9 C306.365915,88.3 308.87218,86.5 312.380952,86.5 C316.892231,86.5 319.097744,89.5 319.097744,95.3 L319.097744,114.8 C319.097744,117.3 318.195489,118 314.686717,118.4 L314.686717,118.9 L330.827068,118.9 L330.827068,118.4 C327.218045,117.9 326.015038,117.1 326.015038,114.5 L326.015038,94.6 L325.914787,94.6 Z M274.385965,118.4 C268.070175,118.4 264.962406,112.8 264.962406,101.8 C264.962406,90.7 268.070175,85.1 274.385965,85.1 C280.601504,85.1 283.709273,90.7 283.709273,101.8 C283.709273,112.8 280.601504,118.4 274.385965,118.4 L274.385965,118.4 Z M274.385965,120 C279.398496,120 283.508772,118.3 286.516291,114.8 C289.52381,111.4 291.027569,107 291.027569,101.7 C291.027569,96.3 289.52381,91.9 286.516291,88.5 C283.508772,85.1 279.398496,83.4 274.385965,83.4 C269.273183,83.4 265.263158,85.1 262.155388,88.5 C259.14787,91.9 257.64411,96.3 257.64411,101.7 C257.64411,107 259.14787,111.4 262.155388,114.8 C265.162907,118.3 269.273183,120 274.385965,120 L274.385965,120 Z M249.924812,84 L238.295739,87.1 L238.295739,87.6 C242.205514,87.4 243.107769,88.1 243.107769,92 L243.107769,114.7 C243.107769,117.2 241.904762,118.1 238.295739,118.6 L238.295739,119.1 L254.736842,119.1 L254.736842,118.6 C251.12782,118.1 249.924812,117.3 249.924812,114.7 L249.924812,84 Z M249.323308,78.1 C251.027569,76.4 251.027569,73.6 249.323308,71.9 C246.817043,69.2 241.503759,71.2 241.804511,75 C241.503759,78.7 246.716792,80.9 249.323308,78.1 L249.323308,78.1 Z M236.090226,112 C234.987469,115.1 233.182957,116.6 230.676692,116.6 C227.969925,116.6 226.566416,114.7 226.566416,110.8 L226.566416,85.6 L234.385965,85.6 L234.385965,84.6 L226.566416,84.6 L226.566416,74.1 L226.265664,74.1 C224.260652,79.9 220.451128,83.6 215.037594,85.1 L215.037594,85.6 L219.749373,85.6 L219.749373,112 C219.749373,117 222.35589,120 227.16792,120 C231.879699,120 234.987469,117.4 236.591479,112.1 L236.090226,112 Z M193.58396,116.7 C189.674185,116.7 187.669173,113.6 187.669173,109.7 C187.669173,107.8 187.969925,106.7 188.87218,105 C189.874687,103.3 192.080201,102 195.388471,101.4 L200.100251,100.5 L200.100251,112 C198.997494,115.1 196.79198,116.7 193.58396,116.7 L193.58396,116.7 Z M213.533835,112.7 C212.73183,115.3 211.428571,116.6 209.62406,116.6 C208.02005,116.6 206.917293,115.1 206.917293,112.6 L206.917293,96.8 C206.917293,88.3 202.907268,83.5 194.987469,83.5 C187.769424,83.5 182.756892,88.2 181.854637,95.6 L182.35589,95.7 C183.558897,90.4 186.967419,87.5 191.879699,87.5 C197.393484,87.5 200.200501,90.8 200.200501,97.4 L200.200501,99.2 L193.082707,100.6 C184.962406,102.3 180.85213,106 180.85213,111.7 C180.85213,116.4 184.360902,120 190.275689,120 C195.488722,120 199.398496,116.6 200.300752,113.1 L200.401003,114.1 C200.601504,117.7 202.706767,120 206.215539,120 C210.426065,120 213.032581,117.6 214.235589,112.8 L213.533835,112.7 Z M172.73183,94.6 C172.73183,87.7 169.323308,83.5 162.606516,83.5 C157.293233,83.5 152.982456,86.7 151.879699,91.1 L151.879699,83.8 L140.250627,86.9 L140.250627,87.4 C144.160401,87.1 145.062657,87.9 145.062657,91.8 L145.062657,114.7 C145.062657,117.2 143.859649,118.1 140.250627,118.6 L140.250627,119.1 L156.290727,119.1 L156.290727,118.6 C152.781955,118.1 151.879699,117.5 151.879699,115 L151.879699,91.9 C153.182957,88.3 155.689223,86.5 159.197995,86.5 C163.709273,86.5 165.914787,89.5 165.914787,95.3 L165.914787,114.8 C165.914787,117.3 165.012531,118 161.503759,118.4 L161.503759,118.9 L177.64411,118.9 L177.64411,118.4 C174.035088,117.9 172.83208,117.1 172.83208,114.5 L172.83208,94.6 L172.73183,94.6 Z M137.54386,83.5 C131.22807,83.5 127.719298,88.1 127.117794,97.4 L126.817043,97.4 L126.817043,83.8 L115.488722,86.9 L115.488722,87.4 C119.298246,87.1 120.300752,88 120.300752,92 L120.300752,114.6 C120.300752,117.1 119.097744,118 115.488722,118.5 L115.488722,119 L133.333333,119 L133.333333,118.5 C128.320802,118.2 127.117794,117.4 127.117794,114.6 L127.117794,102.2 C127.117794,93.2 129.724311,89.9 134.636591,89.9 C135.93985,89.9 136.942356,90 137.64411,90.4 L137.944862,90.4 L137.944862,83.5 L137.54386,83.5 L137.54386,83.5 Z M98.0451128,85 C102.556391,85 105.56391,89 105.263158,97 L89.5238095,97 C89.7243108,89.7 93.1328321,85 98.0451128,85 L98.0451128,85 Z M112.180451,106.7 C110.275689,112.5 106.766917,114.2 102.155388,114.2 C94.7368421,114.2 89.8245614,108.2 89.6240602,98.3 L112.280702,98.3 C112.581454,89.2 107.368421,83.4 99.6491228,83.4 C94.9373434,83.4 91.2280702,85.1 88.5213033,88.6 C85.8145363,92.1 84.4110276,96.6 84.4110276,102.2 C84.4110276,107.8 85.8145363,112.1 88.6215539,115.2 C91.4285714,118.3 94.9373434,119.9 99.2481203,119.9 C106.065163,119.9 111.077694,115.5 112.581454,106.7 L112.180451,106.7 Z M82.2055138,112 C81.1027569,115.1 79.2982456,116.6 76.7919799,116.6 C74.085213,116.6 72.6817043,114.7 72.6817043,110.8 L72.6817043,85.6 L80.5012531,85.6 L80.5012531,84.6 L72.6817043,84.6 L72.6817043,74.1 L72.3809524,74.1 C70.3759398,79.9 66.566416,83.6 61.1528822,85.1 L61.1528822,85.6 L65.8646617,85.6 L65.8646617,112 C65.8646617,117 68.4711779,120 73.283208,120 C77.9949875,120 81.1027569,117.4 82.7067669,112.1 L82.2055138,112 Z M54.5363409,94.6 C54.5363409,87.7 51.1278195,83.5 44.4110276,83.5 C39.0977444,83.5 34.7869674,86.7 33.6842105,91.1 L33.6842105,83.8 L22.0551378,86.9 L22.0551378,87.4 C25.9649123,87.1 26.8671679,87.9 26.8671679,91.8 L26.8671679,114.7 C26.8671679,117.2 25.6641604,118.1 22.0551378,118.6 L22.0551378,119.1 L38.0952381,119.1 L38.0952381,118.6 C34.5864662,118.1 33.6842105,117.5 33.6842105,115 L33.6842105,91.9 C34.9874687,88.3 37.4937343,86.5 41.0025063,86.5 C45.5137845,86.5 47.7192982,89.5 47.7192982,95.3 L47.7192982,114.8 C47.7192982,117.3 46.8170426,118 43.3082707,118.4 L43.3082707,118.9 L59.4486216,118.9 L59.4486216,118.4 C55.839599,117.9 54.6365915,117.1 54.6365915,114.5 L54.6365915,94.6 L54.5363409,94.6 Z M18.8471178,70.8 L1.00250627,70.8 L1.00250627,71.3 C4.9122807,71.8 6.11528822,73.2 6.11528822,77.3 L6.11528822,112 C6.11528822,116.9 5.11278195,118.1 1.00250627,118.5 L1.00250627,119 L18.9473684,119 L18.9473684,118.5 C15.037594,118 13.7343358,116.6 13.7343358,112 L13.7343358,77.3 C13.7343358,73.2 14.8370927,71.8 18.9473684,71.3 L18.9473684,70.8 L18.8471178,70.8 Z" id="Shape"></path>
            <path d="M386.967419,51.2 C394.887218,51.2 400,46.5 400,39.7 C400,35.1 397.694236,32.5 392.781955,30.6 L385.363409,27.6 C382.055138,26.4 380.350877,24.4 380.350877,21.8 C380.350877,18.6 382.556391,16.4 387.067669,16.4 C392.781955,16.4 396.090226,19.7 397.092732,26.4 L397.694236,26.4 L398.897243,17 C396.190476,15.4 392.781955,14.7 388.671679,14.7 C380.651629,14.7 375.93985,19.2 375.93985,25.2 C375.93985,29.5 378.045113,32.5 382.45614,34.3 L389.874687,37.3 C393.684211,38.7 395.488722,40.7 395.488722,43.4 C395.488722,46.9 392.982456,49.4 388.471178,49.4 C382.45614,49.4 377.844612,44.8 377.142857,37.7 L376.541353,37.7 L375.338346,48.1 C378.847118,50.2 382.656642,51.2 386.967419,51.2 L386.967419,51.2 Z M354.385965,49.9 C350.977444,49.9 348.671679,48 347.568922,46.2 L347.568922,22.1 C348.972431,19.6 351.177945,18.2 354.285714,18.2 C360,18.2 363.809524,24.1 363.809524,33.4 C363.709273,43.8 359.799499,49.9 354.385965,49.9 L354.385965,49.9 Z M353.684211,64 L353.684211,63.5 C348.671679,63.2 347.468672,62.4 347.468672,59.6 L347.468672,48.6 C349.774436,50.3 352.280702,51.2 355.087719,51.2 C359.498747,51.2 363.308271,49.3 366.41604,45.6 C369.52381,41.9 371.027569,37.1 371.027569,31.4 C371.027569,26.4 369.824561,22.4 367.318296,19.3 C364.81203,16.3 361.704261,14.8 357.894737,14.8 C352.982456,14.8 349.172932,17.4 347.368421,21.3 L347.368421,15 L335.839599,18.1 L335.839599,18.6 C339.749373,18.3 340.651629,19.1 340.651629,23 L340.651629,59.7 C340.651629,62.2 339.448622,63.1 335.839599,63.6 L335.839599,64 L353.684211,64 Z M329.323308,15.2 L317.694236,18.3 L317.694236,18.8 C321.60401,18.6 322.506266,19.3 322.506266,23.2 L322.506266,45.9 C322.506266,48.4 321.303258,49.3 317.694236,49.8 L317.694236,50.3 L334.135338,50.3 L334.135338,49.8 C330.526316,49.3 329.323308,48.5 329.323308,45.9 L329.323308,15.2 L329.323308,15.2 Z M328.721805,9.4 C330.325815,7.7 330.325815,4.9 328.721805,3.2 C326.215539,0.5 320.902256,2.5 321.203008,6.3 C320.902256,10 326.115288,12.1 328.721805,9.4 L328.721805,9.4 Z M293.934837,50.2 L293.934837,49.7 C290.426065,49.2 289.52381,48.6 289.52381,46.1 L289.52381,23.2 C290.827068,19.7 293.233083,17.9 296.741855,17.9 C301.253133,17.9 303.558897,20.8 303.558897,26.6 L303.558897,46.1 C303.558897,48.6 302.656642,49.3 299.14787,49.7 L299.14787,50.2 L315.288221,50.2 L315.288221,49.7 C311.679198,49.2 310.47619,48.4 310.47619,45.8 L310.47619,25.7 C310.47619,18.9 307.067669,14.8 300.350877,14.8 C295.037594,14.8 290.726817,18 289.62406,22.3 L289.62406,0 L277.994987,3.2 L277.994987,3.7 C281.704261,3.4 282.706767,4.2 282.706767,8 L282.706767,45.9 C282.706767,48.4 281.503759,49.3 277.894737,49.8 L277.894737,50.3 L293.934837,50.3 L293.934837,50.2 Z M261.754386,51.2 C269.674185,51.2 274.786967,46.5 274.786967,39.7 C274.786967,35.1 272.481203,32.5 267.568922,30.6 L260.150376,27.6 C256.842105,26.4 255.137845,24.4 255.137845,21.8 C255.137845,18.6 257.343358,16.4 261.854637,16.4 C267.568922,16.4 270.877193,19.7 271.879699,26.4 L272.481203,26.4 L273.684211,17 C270.977444,15.4 267.568922,14.7 263.458647,14.7 C255.438596,14.7 250.726817,19.2 250.726817,25.2 C250.726817,29.5 252.83208,32.5 257.243108,34.3 L264.661654,37.3 C268.471178,38.7 270.275689,40.7 270.275689,43.4 C270.275689,46.9 267.769424,49.4 263.258145,49.4 C257.243108,49.4 252.631579,44.8 251.929825,37.7 L251.328321,37.7 L250.125313,48.1 C253.533835,50.2 257.443609,51.2 261.754386,51.2 L261.754386,51.2 Z M242.205514,25.8 C242.205514,18.9 238.796992,14.7 232.080201,14.7 C226.766917,14.7 222.45614,17.9 221.353383,22.3 L221.353383,15 L209.724311,18.1 L209.724311,18.6 C213.634085,18.3 214.536341,19.1 214.536341,23 L214.536341,45.9 C214.536341,48.4 213.333333,49.3 209.724311,49.8 L209.724311,50.3 L225.764411,50.3 L225.764411,49.8 C222.255639,49.3 221.353383,48.7 221.353383,46.2 L221.353383,23.2 C222.656642,19.6 225.162907,17.8 228.671679,17.8 C233.182957,17.8 235.388471,20.8 235.388471,26.6 L235.388471,46.1 C235.388471,48.6 234.486216,49.3 230.977444,49.7 L230.977444,50.2 L247.117794,50.2 L247.117794,49.7 C243.508772,49.2 242.305764,48.4 242.305764,45.8 L242.305764,25.8 L242.205514,25.8 Z M190.676692,49.7 C184.360902,49.7 181.253133,44.1 181.253133,33.1 C181.253133,22 184.360902,16.4 190.676692,16.4 C196.892231,16.4 200,22 200,33.1 C200,44.1 196.892231,49.7 190.676692,49.7 L190.676692,49.7 Z M190.676692,51.2 C195.689223,51.2 199.799499,49.5 202.807018,46 C205.814536,42.6 207.318296,38.2 207.318296,32.9 C207.318296,27.5 205.814536,23.1 202.807018,19.7 C199.799499,16.3 195.689223,14.6 190.676692,14.6 C185.56391,14.6 181.553885,16.3 178.446115,19.7 C175.438596,23.1 173.934837,27.5 173.934837,32.9 C173.934837,38.2 175.438596,42.6 178.446115,46 C181.553885,49.5 185.56391,51.2 190.676692,51.2 L190.676692,51.2 Z M166.215539,15.2 L154.586466,18.3 L154.586466,18.8 C158.496241,18.6 159.398496,19.3 159.398496,23.2 L159.398496,45.9 C159.398496,48.4 158.195489,49.3 154.586466,49.8 L154.586466,50.3 L171.027569,50.3 L171.027569,49.8 C167.418546,49.3 166.215539,48.5 166.215539,45.9 L166.215539,15.2 Z M165.614035,9.4 C167.318296,7.7 167.318296,4.9 165.614035,3.2 C163.107769,0.5 157.794486,2.5 158.095238,6.3 C157.794486,10 163.007519,12.1 165.614035,9.4 L165.614035,9.4 Z M152.380952,43.2 C151.278195,46.3 149.473684,47.8 146.967419,47.8 C144.260652,47.8 142.857143,45.9 142.857143,42 L142.857143,16.8 L150.676692,16.8 L150.676692,15.8 L142.857143,15.8 L142.857143,5.4 L142.556391,5.4 C140.551378,11.2 136.741855,14.9 131.328321,16.4 L131.328321,16.9 L136.0401,16.9 L136.0401,43.2 C136.0401,48.2 138.646617,51.2 143.458647,51.2 C148.170426,51.2 151.278195,48.6 152.882206,43.3 L152.380952,43.2 Z M109.874687,47.9 C105.964912,47.9 103.9599,44.8 103.9599,40.9 C103.9599,39 104.260652,37.9 105.162907,36.2 C106.165414,34.6 108.370927,33.2 111.679198,32.6 L116.390977,31.7 L116.390977,43.3 C115.288221,46.3 113.082707,47.9 109.874687,47.9 L109.874687,47.9 Z M129.824561,43.9 C129.022556,46.5 127.719298,47.8 125.914787,47.8 C124.210526,47.8 123.20802,46.3 123.20802,43.8 L123.20802,28.1 C123.20802,19.6 119.197995,14.8 111.278195,14.8 C104.06015,14.8 99.047619,19.5 98.1453634,26.9 L98.6466165,27 C99.8496241,21.7 103.258145,18.8 108.170426,18.8 C113.684211,18.8 116.491228,22.1 116.491228,28.7 L116.491228,30.5 L109.373434,31.9 C101.253133,33.4 97.2431078,37.1 97.2431078,42.9 C97.2431078,47.6 100.75188,51.2 106.666667,51.2 C111.879699,51.2 115.789474,47.8 116.691729,44.3 L116.79198,45.3 C116.992481,48.9 119.097744,51.2 122.606516,51.2 C126.817043,51.2 129.423559,48.8 130.626566,44 L129.824561,43.9 Z M89.0225564,0 L77.2932331,3.2 L77.2932331,3.7 C81.2030075,3.4 82.2055138,4.2 82.2055138,8 L82.2055138,45.9 C82.2055138,48.4 81.0025063,49.3 77.3934837,49.8 L77.3934837,50.3 L93.8345865,50.3 L93.8345865,49.8 C90.2255639,49.3 89.0225564,48.5 89.0225564,45.9 L89.0225564,0 Z M59.7493734,16.2 C64.2606516,16.2 67.2681704,20.2 66.9674185,28.2 L51.2280702,28.2 C51.4285714,20.9 54.8370927,16.2 59.7493734,16.2 L59.7493734,16.2 Z M73.7844612,38 C71.8796992,43.8 68.3709273,45.5 63.7593985,45.5 C56.3408521,45.5 51.4285714,39.5 51.2280702,29.6 L73.8847118,29.6 C74.1854637,20.5 68.9724311,14.7 61.2531328,14.7 C56.5413534,14.7 52.8320802,16.4 50.1253133,19.9 C47.4185464,23.4 46.0150376,27.9 46.0150376,33.5 C46.0150376,39.1 47.4185464,43.4 50.2255639,46.5 C53.0325815,49.6 56.5413534,51.2 60.8521303,51.2 C67.6691729,51.2 72.6817043,46.8 74.1854637,38 L73.7844612,38 Z M13.7343358,3.4 L18.245614,3.4 C26.4661654,3.4 28.9724311,7 28.9724311,13.9 C28.9724311,21.5 25.4636591,25.2 17.1428571,25.2 L13.7343358,25.2 L13.7343358,3.4 Z M18.8471178,50.2 L18.8471178,49.7 C14.9373434,49.2 13.6340852,47.8 13.6340852,43.2 L13.6340852,26.3 L17.443609,26.3 C19.9498747,26.3 21.8546366,26.8 23.0576441,27.7 C24.2606516,28.7 25.4636591,30.7 26.7669173,33.6 L30.5764411,42.7 C32.1804511,46.3 33.3834586,48.8 34.085213,50.1 L45.8145363,50.1 L45.8145363,49.6 C42.9072682,49.3 40.6015038,47.1 38.8972431,42.9 L34.9874687,33.8 C32.7819549,28.4 27.9699248,25.7 21.8546366,25.8 L21.8546366,25.5 C26.1654135,25.5 29.8746867,24.4 32.7819549,22.3 C35.7894737,20.2 37.2932331,17.3 37.2932331,13.7 C37.2932331,6 32.0802005,2.1 19.7493734,2.1 L1.00250627,2.1 L1.00250627,2.6 C4.9122807,3 6.01503759,4.4 6.01503759,8.5 L6.01503759,43.2 C6.01503759,48.1 5.01253133,49.3 0.902255639,49.7 L0.902255639,50.2 L18.8471178,50.2 Z" id="Shape"></path>
        </g>
    </g>
</svg>