<?xml version="1.0" encoding="utf-8"?>
<!-- Generator: Adobe Illustrator 22.1.0, SVG Export Plug-In . SVG Version: 6.00 Build 0)  -->
<svg version="1.1" id="Layer_1" xmlns="http://www.w3.org/2000/svg" xmlns:xlink="http://www.w3.org/1999/xlink" x="0px" y="0px"
	 viewBox="0 0 110 85" style="enable-background:new 0 0 110 85;" xml:space="preserve">
<style type="text/css">
	.st0{fill:#97D88A;}
</style>
<g>
	<path class="st0" d="M36.8,20c0,6.2-5,11.2-11.2,11.2s-11.2-5-11.2-11.2s5-11.2,11.2-11.2S36.8,13.8,36.8,20 M39.6,20
		c0-7.7-6.3-14-14-14s-13.9,6.3-13.9,14s6.2,13.9,13.9,13.9S39.6,27.7,39.6,20 M96.6,39.8c0,6.2-5,11.2-11.2,11.2s-11.2-5-11.2-11.2
		s5-11.2,11.2-11.2C91.6,28.6,96.6,33.6,96.6,39.8 M99.4,39.8c0-7.7-6.2-13.9-13.9-13.9s-13.9,6.2-13.9,13.9s6.2,13.9,13.9,13.9
		S99.4,47.5,99.4,39.8 M46.5,59H4.8c0.7-10.9,9.8-19.5,20.9-19.5C36.7,39.5,45.8,48.1,46.5,59 M70.5,61.8c-2.5,2-4.6,4.6-6.1,7.5
		H2.9c-0.8,0-1.4,0.6-1.4,1.4s0.6,1.4,1.4,1.4h60.3c-0.9,2.5-1.5,5.3-1.5,8.1c0,0.8,0.6,1.4,1.4,1.4c0.8,0,1.4-0.6,1.4-1.4
		c0-11.5,9.4-20.9,20.9-20.9s20.9,9.4,20.9,20.9c0,0.8,0.6,1.4,1.4,1.4s1.4-0.6,1.4-1.4c0-13.1-10.6-23.7-23.7-23.7
		c-3.8,0-7.4,0.9-10.7,2.6l0,0H49.3c-0.7-12.4-11-22.3-23.7-22.3c-13.1,0-23.7,10.6-23.7,23.7c0,0.8,0.6,1.4,1.4,1.4L70.5,61.8z"/>
</g>
</svg>
