
<svg width="109px" height="76px" viewBox="0 0 109 76" version="1.1" xmlns="http://www.w3.org/2000/svg" xmlns:xlink="http://www.w3.org/1999/xlink">
    <g id="Page-1" stroke="none" stroke-width="1" fill="none" fill-rule="evenodd">
        <g id="professionals" fill="#FFBB9B" fill-rule="nonzero">
            <path d="M35.8,14 C35.8,20.2 30.8,25.2 24.6,25.2 C18.4,25.2 13.4,20.2 13.4,14 C13.4,7.8 18.4,2.8 24.6,2.8 C30.8,2.8 35.8,7.8 35.8,14 L35.8,14 Z M38.6,14 C38.6,6.3 32.3,0 24.6,0 C16.9,0 10.7,6.3 10.7,14 C10.7,21.7 16.9,27.9 24.6,27.9 C32.3,27.9 38.6,21.7 38.6,14 L38.6,14 Z M95.6,33.8 C95.6,40 90.6,45 84.4,45 C78.2,45 73.2,40 73.2,33.8 C73.2,27.6 78.2,22.6 84.4,22.6 C90.6,22.6 95.6,27.6 95.6,33.8 L95.6,33.8 Z M98.4,33.8 C98.4,26.1 92.2,19.9 84.5,19.9 C76.8,19.9 70.6,26.1 70.6,33.8 C70.6,41.5 76.8,47.7 84.5,47.7 C92.2,47.7 98.4,41.5 98.4,33.8 L98.4,33.8 Z M45.5,53 L3.8,53 C4.5,42.1 13.6,33.5 24.7,33.5 C35.7,33.5 44.8,42.1 45.5,53 L45.5,53 Z M69.5,55.8 C67,57.8 64.9,60.4 63.4,63.3 L1.9,63.3 C1.1,63.3 0.5,63.9 0.5,64.7 C0.5,65.5 1.1,66.1 1.9,66.1 L62.2,66.1 C61.3,68.6 60.7,71.4 60.7,74.2 C60.7,75 61.3,75.6 62.1,75.6 C62.9,75.6 63.5,75 63.5,74.2 C63.5,62.7 72.9,53.3 84.4,53.3 C95.9,53.3 105.3,62.7 105.3,74.2 C105.3,75 105.9,75.6 106.7,75.6 C107.5,75.6 108.1,75 108.1,74.2 C108.1,61.1 97.5,50.5 84.4,50.5 C80.6,50.5 77,51.4 73.7,53.1 L73.7,53.1 L48.3,53.1 C47.6,40.7 37.3,30.8 24.6,30.8 C11.5,30.8 0.9,41.4 0.9,54.5 C0.9,55.3 1.5,55.9 2.3,55.9 L69.5,55.8 Z" id="Shape"></path>
        </g>
    </g>
</svg>