<?xml version="1.0" standalone="no"?>
<!DOCTYPE svg PUBLIC "-//W3C//DTD SVG 1.1//EN" "http://www.w3.org/Graphics/SVG/1.1/DTD/svg11.dtd" >
<svg xmlns="http://www.w3.org/2000/svg" xmlns:xlink="http://www.w3.org/1999/xlink" version="1.1">
<metadata>
Created by FontForge 20190413 at Sat Jun 27 02:18:16 2015
 By Mark Brand
Copyright (c) 2015 by The Entente (AS&#38;EH). All rights reserved.
</metadata>
<defs>
<font id="BasisGrotesquePro-Bold" horiz-adv-x="594" >
  <font-face 
    font-family="BasisGrotesquePro-Bold"
    font-weight="700"
    font-stretch="normal"
    units-per-em="1000"
    panose-1="2 0 8 3 3 0 0 2 0 4"
    ascent="800"
    descent="-200"
    x-height="496"
    cap-height="700"
    bbox="-49 -218 1118 934"
    underline-thickness="50"
    underline-position="-99"
    unicode-range="U+000D-FB04"
  />
<missing-glyph horiz-adv-x="365" 
d="M299 0h-266v666h266v-666zM66 633v-600h200v600h-200z" />
    <glyph glyph-name="uniFB01" unicode="fi" horiz-adv-x="592" 
d="M530 0h-126v394h-187v-394h-126v394h-72v102h72v70q0 88 47 136t129 48q33 0 63 -11l-22 -111q-18 6 -35 6q-56 0 -56 -65v-73h313v-496zM536 568h-138v132h138v-132z" />
    <glyph glyph-name="uniFB02" unicode="fl" horiz-adv-x="593" 
d="M91 394h-72v102h72v70q0 88 47 136t129 48q33 0 63 -11l-22 -111q-18 6 -35 6q-56 0 -56 -65v-73h108v-102h-108v-394h-126v394zM530 0h-126v700h126v-700z" />
    <glyph glyph-name="uniFB03" unicode="ffi" horiz-adv-x="876" 
d="M814 0h-126v394h-187v-394h-126v394h-158v-394h-126v394h-72v102h72v70q0 88 47 136t129 48q33 0 63 -11l-22 -111q-18 6 -35 6q-56 0 -56 -65v-73h158v70q0 88 48 136t128 48q33 0 63 -11l-22 -111q-18 6 -35 6q-56 0 -56 -65v-73h313v-496zM820 568h-138v132h138v-132z
" />
    <glyph glyph-name="uniFB04" unicode="ffl" horiz-adv-x="877" 
d="M91 394h-72v102h72v70q0 88 47 136t129 48q33 0 63 -11l-22 -111q-18 6 -35 6q-56 0 -56 -65v-73h158v70q0 88 48 136t128 48q33 0 63 -11l-22 -111q-18 6 -35 6q-56 0 -56 -65v-73h108v-102h-108v-394h-126v394h-158v-394h-126v394zM814 0h-126v700h126v-700z" />
    <glyph glyph-name=".notdef" horiz-adv-x="365" 
d="M299 0h-266v666h266v-666zM66 633v-600h200v600h-200z" />
    <glyph glyph-name="glyph1" horiz-adv-x="0" 
 />
    <glyph glyph-name="glyph2" horiz-adv-x="333" 
 />
    <glyph glyph-name="glyph3" horiz-adv-x="0" 
 />
    <glyph glyph-name="glyph3" horiz-adv-x="0" 
 />
    <glyph glyph-name="uni000D" unicode="&#xd;" horiz-adv-x="288" 
 />
    <glyph glyph-name="space" unicode=" " horiz-adv-x="275" 
 />
    <glyph glyph-name="exclam" unicode="!" horiz-adv-x="277" 
d="M89 208l-16 249v243h132v-243l-16 -249h-100zM205 0h-132v138h132v-138z" />
    <glyph glyph-name="quotedbl" unicode="&#x22;" horiz-adv-x="394" 
d="M64 454l-13 167v79h120v-79l-13 -167h-94zM236 454l-13 167v79h120v-79l-13 -167h-94z" />
    <glyph glyph-name="numbersign" unicode="#" horiz-adv-x="665" 
d="M464 700h110l-38 -204h89v-94h-106l-19 -104h105v-94h-122l-37 -204h-110l37 204h-129l-38 -204h-110l38 204h-89v94h106l19 104h-105v94h122l37 204h110l-37 -204h129zM409 402h-129l-19 -104h129z" />
    <glyph glyph-name="dollar" unicode="$" horiz-adv-x="651" 
d="M384 -100h-104v90q-97 14 -157.5 71.5t-78.5 148.5l116 59q24 -131 120 -160v206q-206 47 -206 207q0 78 56 129t150 61v88h104v-92q148 -26 203 -174l-104 -60q-28 87 -99 116v-177q109 -25 162 -77t53 -135q0 -78 -59 -140q-58 -60 -156 -72v-89zM467 196q0 62 -83 92
v-181q39 9 61 32.5t22 56.5zM200 525q0 -53 80 -85v159q-80 -14 -80 -74z" />
    <glyph glyph-name="percent" unicode="%" horiz-adv-x="875" 
d="M92 414q-49 49 -49 125t49 125q50 50 125 50t125 -50q49 -49 49 -125t-49 -125q-50 -50 -125 -50t-125 50zM158 603q-23 -25 -23 -64t23 -64q24 -25 59 -25t58 25q24 25 24 64t-24 64q-23 25 -58 25t-59 -25zM533 36q-49 49 -49 125t49 125q50 50 125 50t125 -50
q49 -49 49 -125t-49 -125q-50 -50 -125 -50t-125 50zM600 225q-24 -25 -24 -64t23 -64q24 -25 59 -25t58 25q24 25 24 64t-24 64q-23 25 -58 25t-58 -25zM691 658l-435 -665l-72 49l435 665z" />
    <glyph glyph-name="ampersand" unicode="&#x26;" horiz-adv-x="662" 
d="M533 125l95 -125h-144l-31 41q-73 -55 -177 -55q-98 0 -162 60q-63 62 -63 158q0 125 131 205q-44 71 -44 134q0 75 50 123q51 48 126 48q78 0 124.5 -39.5t46.5 -105.5q0 -108 -149 -185l128 -168q28 60 42 140l98 -56q-24 -103 -71 -175zM391 125l-151 203
q-63 -50 -63 -118q0 -52 33 -83q32 -31 85 -31q52 0 96 29zM248 547q0 -40 32 -89q54 25 77 48q21 23 21.5 52t-18.5 44q-13 12 -33 14.5t-38 -3.5t-30 -23.5t-11 -42.5z" />
    <glyph glyph-name="quotesingle" unicode="'" horiz-adv-x="222" 
d="M64 454l-13 167v79h120v-79l-13 -167h-94z" />
    <glyph glyph-name="parenleft" unicode="(" horiz-adv-x="359" 
d="M284 -148h-113q-108 191 -108 424t108 424h113q-40 -72 -67 -196q-26 -125 -26 -228t26 -228q27 -124 67 -196z" />
    <glyph glyph-name="parenright" unicode=")" horiz-adv-x="359" 
d="M189 -148h-113q41 74 66 196q27 123 27 228t-27 228q-25 122 -66 196h113q108 -190 108 -424q0 -233 -108 -424z" />
    <glyph glyph-name="asterisk" unicode="*" horiz-adv-x="437" 
d="M165 700h108l-20 -110l85 73l54 -94l-106 -37l106 -37l-54 -94l-85 73l20 -110h-108l20 110l-85 -73l-54 94l106 37l-106 37l54 94l85 -73z" />
    <glyph glyph-name="plus" unicode="+" horiz-adv-x="563" 
d="M231 314h-191v102h191v191h102v-191h191v-102h-191v-191h-102v191z" />
    <glyph glyph-name="comma" unicode="," horiz-adv-x="214" 
d="M85 0h-45v134h134v-134l-98 -151l-29 11z" />
    <glyph glyph-name="hyphen" unicode="-" horiz-adv-x="468" 
d="M428 260h-388v102h388v-102z" />
    <glyph glyph-name="period" unicode="." horiz-adv-x="214" 
d="M174 0h-134v134h134v-134z" />
    <glyph glyph-name="slash" unicode="/" horiz-adv-x="537" 
d="M133 -30h-128l400 760h128z" />
    <glyph glyph-name="zero" unicode="0" horiz-adv-x="722" 
d="M588 613q89 -101 89 -263q0 -163 -89 -264q-88 -100 -227 -100t-227 100q-89 101 -89 264q0 162 89 263t227 101t227 -101zM228 173q50 -65 133 -65q84 0 133 64q51 64 51 177t-51 178q-50 65 -133 65t-134 -65q-50 -65 -50 -178q0 -111 51 -176z" />
    <glyph glyph-name="one" unicode="1" horiz-adv-x="394" 
d="M46 490v122q110 0 155 88h124v-700h-132v537q-27 -26 -60.5 -36.5t-86.5 -10.5z" />
    <glyph glyph-name="two" unicode="2" horiz-adv-x="586" 
d="M47 0v94l266 261q46 46 64 76.5t18 66.5q0 45 -29 72.5t-78 27.5t-79 -27t-30 -72q0 -23 9 -48l-128 -24q-13 33 -13 79q0 86 66 147q67 61 175 61q111 0 173 -56t62 -145q0 -69 -27 -120q-25 -49 -95 -118l-157 -153h279v-122h-476z" />
    <glyph glyph-name="three" unicode="3" horiz-adv-x="602" 
d="M61 262l125 -30q-4 -9 -4 -29q0 -48 32.5 -76.5t86.5 -28.5q56 0 89.5 29t33.5 82q0 116 -179 116v98q72 0 111 26.5t39 74.5q0 38 -26.5 60t-71.5 22t-73.5 -22.5t-28.5 -58.5q0 -21 6 -34l-122 -27q-10 27 -10 55q0 80 63 137q62 58 166 58q108 0 166.5 -46.5
t58.5 -125.5q0 -53 -28 -94.5t-75 -62.5q62 -21 99 -66.5t37 -109.5q0 -101 -71 -163q-71 -60 -184 -60q-117 0 -185 62q-66 61 -66 152q0 34 11 62z" />
    <glyph glyph-name="four" unicode="4" horiz-adv-x="613" 
d="M382 116h-341v122l341 462h132v-462h71v-122h-71v-116h-132v116zM382 238v276l-201 -276h201z" />
    <glyph glyph-name="five" unicode="5" horiz-adv-x="608" 
d="M158 291l-103 27l33 382h434v-122h-342l-17 -161q27 29 70 45t86 16q117 0 182 -63.5t65 -174.5q0 -108 -75 -181q-73 -73 -193 -73q-114 0 -182 59q-67 58 -67 141q0 29 10 55l126 -30q-4 -12 -4 -26q0 -41 32 -64t86 -23q61 0 98 38t37 104q0 63 -37 99.5t-98 36.5
q-41 0 -78.5 -22.5t-62.5 -62.5z" />
    <glyph glyph-name="six" unicode="6" horiz-adv-x="618" 
d="M539 484l-122 26q7 15 7 33q0 33 -25 51t-67 18q-68 0 -112 -66q-43 -65 -50 -161q70 73 169 73q103 0 171 -66t68 -168q0 -101 -74 -170q-74 -68 -186 -68q-126 0 -199 85q-74 86 -74 238q0 131 41 230q35 84 98.5 129.5t147.5 45.5q101 0 159 -49q59 -48 59 -125
q0 -29 -11 -56zM183 222q0 -58 37.5 -93t95.5 -35t96 35t38 93t-37.5 93t-96.5 35q-58 0 -95.5 -35t-37.5 -93z" />
    <glyph glyph-name="seven" unicode="7" horiz-adv-x="545" 
d="M508 700v-116l-262 -584h-132l260 578h-338v122h472z" />
    <glyph glyph-name="eight" unicode="8" 
d="M46 194q0 63 31.5 110.5t88.5 70.5q-99 49 -99 155q0 81 63 132q64 52 166 52q103 0 167 -52q64 -51 64 -132q0 -104 -99 -155q57 -23 88.5 -70.5t31.5 -110.5q0 -94 -68 -151t-183 -57t-183 57t-68 151zM209 125q34 -31 88 -31t88 31q35 32 35 80t-35 80q-34 31 -88 31
t-88 -31q-35 -32 -35 -80t35 -80zM193 521q0 -44 30 -70.5t74 -26.5t74 27t30 70q0 44 -30 69.5t-74 25.5t-74 -25.5t-30 -69.5z" />
    <glyph glyph-name="nine" unicode="9" horiz-adv-x="629" 
d="M85 216l124 -27q-7 -15 -7 -32q0 -32 27.5 -50.5t70.5 -18.5q66 0 108 60.5t50 166.5q-57 -73 -161 -73q-109 0 -179 65q-68 65 -68 167q0 104 72 171q73 69 188 69q131 0 202 -84.5t71 -238.5q0 -130 -42 -235q-32 -82 -95.5 -126t-149.5 -44q-103 0 -161.5 49
t-58.5 128q0 27 9 53zM313 350q56 0 94 35t38 92q0 58 -38 93.5t-94 35.5q-54 0 -95 -35q-40 -34 -40 -94q0 -59 40 -93t95 -34z" />
    <glyph glyph-name="colon" unicode=":" horiz-adv-x="214" 
d="M174 350h-134v134h134v-134zM174 0h-134v134h134v-134z" />
    <glyph glyph-name="semicolon" unicode=";" horiz-adv-x="214" 
d="M174 350h-134v134h134v-134zM85 0h-45v134h134v-134l-101 -162l-29 11z" />
    <glyph glyph-name="less" unicode="&#x3c;" horiz-adv-x="525" 
d="M477 46l-437 215v98l437 214v-124l-299 -139l299 -139v-125z" />
    <glyph glyph-name="equal" unicode="=" horiz-adv-x="563" 
d="M524 194h-484v102h484v-102zM524 394h-484v102h484v-102z" />
    <glyph glyph-name="greater" unicode="&#x3e;" horiz-adv-x="525" 
d="M49 573l437 -214v-98l-437 -215v125l299 139l-299 139v124z" />
    <glyph glyph-name="question" unicode="?" horiz-adv-x="549" 
d="M328 208h-126v16q0 46 19 79.5t67 72.5q51 40 71.5 71t20.5 68q0 38 -29 61.5t-75 23.5q-48 0 -80.5 -27.5t-32.5 -71.5q0 -22 7 -37l-115 -24q-14 31 -14 72q0 78 65 140t167 62q107 0 169 -51.5t62 -138.5q0 -60 -28 -106q-26 -43 -101 -109q-26 -24 -36.5 -46
t-10.5 -55zM331 0h-132v138h132v-138z" />
    <glyph glyph-name="at" unicode="@" horiz-adv-x="957" 
d="M652 -5l48 -81q-56 -35 -111 -50.5t-131 -15.5q-169 0 -287 100q-59 50 -92.5 133t-33.5 188q0 123 57 223q59 102 163 162q107 60 237 60q166 0 281 -91q59 -46 92 -118.5t33 -163.5q0 -134 -72 -224t-176 -90q-45 0 -71.5 20.5t-26.5 55.5q0 1 0.5 5t0.5 7
q-24 -40 -64 -64t-89 -24q-83 0 -133 59q-49 58 -49 155q0 135 77.5 217t170.5 82q90 0 126 -65l8 49h96l-56 -362q-1 -6 -1 -16q0 -34 31 -34q47 0 84 61q38 62 38 167q0 128 -78 204q-78 78 -229 78q-143 0 -244 -102q-100 -101 -100 -258q0 -152 89 -238q88 -84 222 -84
q113 0 190 55zM425 112q62 0 107 63q46 62 46 161q0 117 -89 117q-61 0 -108 -63q-47 -64 -47 -155q0 -58 25 -90.5t66 -32.5z" />
    <glyph glyph-name="A" unicode="A" horiz-adv-x="701" 
d="M146 0h-141l283 700h126l283 -700h-141l-70 183h-270zM351 545l-26 -76l-64 -168h180l-64 168q-16 41 -26 76z" />
    <glyph glyph-name="B" unicode="B" horiz-adv-x="659" 
d="M366 0h-293v700h288q108 0 166 -45t58 -126q0 -49 -27 -88t-70 -61q126 -50 126 -170q0 -96 -72 -153q-70 -57 -176 -57zM358 312h-153v-194h153q124 0 124 97t-124 97zM351 584h-146v-156h146q106 0 106 78t-106 78z" />
    <glyph glyph-name="C" unicode="C" horiz-adv-x="768" 
d="M617 248l103 -74q-69 -103 -137 -145q-68 -43 -179 -43q-157 0 -257 100q-101 101 -101 264q0 162 103 262q103 102 260 102q108 0 189 -51q82 -49 118 -132l-107 -77q-65 138 -204 138q-94 0 -160 -67q-65 -67 -65 -175q0 -106 65 -174t160 -68q138 0 212 140z" />
    <glyph glyph-name="D" unicode="D" horiz-adv-x="711" 
d="M284 0h-211v700h211q171 0 276 -90q105 -88 105 -260q0 -171 -105 -261q-106 -89 -276 -89zM205 122h88q111 0 174.5 59t63.5 168q0 110 -63.5 169.5t-174.5 59.5h-88v-456z" />
    <glyph glyph-name="E" unicode="E" horiz-adv-x="614" 
d="M559 0h-486v700h483v-118h-351v-161h323v-118h-323v-185h354v-118z" />
    <glyph glyph-name="F" unicode="F" horiz-adv-x="617" 
d="M205 0h-132v700h495v-118h-363v-181h333v-118h-333v-283z" />
    <glyph glyph-name="G" unicode="G" horiz-adv-x="779" 
d="M721 0h-87l-28 96q-69 -110 -213 -110q-147 0 -248 102q-99 103 -99 262q0 157 105 260q107 104 258 104q102 0 184 -46t122 -125l-99 -72q-32 61 -86 94t-123 33q-95 0 -161 -69q-66 -67 -66 -179q0 -107 62 -175q61 -67 155 -67q83 0 131.5 42.5t60.5 115.5h-226v108
h358v-374z" />
    <glyph glyph-name="H" unicode="H" horiz-adv-x="716" 
d="M205 0h-132v700h132v-282h306v282h132v-700h-132v296h-306v-296z" />
    <glyph glyph-name="I" unicode="I" horiz-adv-x="277" 
d="M205 0h-132v700h132v-700z" />
    <glyph glyph-name="J" unicode="J" horiz-adv-x="555" 
d="M368 700h132v-486q0 -104 -61 -166t-168 -62q-108 0 -168.5 62.5t-60.5 175.5l132 -14q2 -102 97 -102q47 0 72 28.5t25 79.5v484z" />
    <glyph glyph-name="K" unicode="K" horiz-adv-x="657" 
d="M456 700h167l-248 -260l264 -440h-154l-205 342l-75 -79v-263h-132v700h132v-270l55 62z" />
    <glyph glyph-name="L" unicode="L" horiz-adv-x="597" 
d="M556 0h-483v700h132v-578h351v-122z" />
    <glyph glyph-name="M" unicode="M" horiz-adv-x="869" 
d="M201 0h-128v700h139l223 -556l223 556h139v-700h-128v428l-34 -107l-137 -321h-126l-137 321l-34 107v-428z" />
    <glyph glyph-name="N" unicode="N" horiz-adv-x="729" 
d="M201 0h-128v700h134l292 -445q25 -42 30 -55v500h128v-700h-134l-292 448q-25 42 -30 55v-503z" />
    <glyph glyph-name="O" unicode="O" horiz-adv-x="812" 
d="M663 609q103 -103 103 -260t-103 -260q-102 -103 -257 -103q-154 0 -257 103t-103 260q0 158 103 261q104 104 257 104q155 0 257 -105zM632 350q0 112 -64 176q-64 66 -162 66t-162 -66q-64 -65 -64 -177q0 -111 64 -176q65 -65 162 -65t162 65q64 65 64 177z" />
    <glyph glyph-name="P" unicode="P" horiz-adv-x="697" 
d="M205 0h-132v700h318q122 0 192 -60.5t70 -168.5q0 -107 -70 -167t-192 -60h-186v-244zM387 582h-182v-220h182q66 0 100 28.5t34 80.5q0 53 -34 82t-100 29z" />
    <glyph glyph-name="Q" unicode="Q" horiz-adv-x="812" 
d="M766 350q0 -117 -60 -207q-59 -90 -158 -130q20 -35 86 -95l-95 -85q-66 66 -118 153h-15q-154 0 -257 103t-103 260q0 158 103 261q104 104 257 104q155 0 257 -104q103 -103 103 -260zM632 350q0 112 -64 176q-64 66 -162 66t-162 -66q-64 -65 -64 -177q0 -111 64 -176
q65 -65 162 -65t162 65q64 65 64 177z" />
    <glyph glyph-name="R" unicode="R" horiz-adv-x="667" 
d="M630 0h-151l-162 284h-112v-284h-132v700h299q115 0 182 -53.5t67 -144.5q0 -148 -160 -206zM372 584h-167v-184h167q117 0 117 92t-117 92z" />
    <glyph glyph-name="S" unicode="S" horiz-adv-x="651" 
d="M201 525q0 -40 39.5 -65t129.5 -44q117 -24 173 -76t56 -139q0 -89 -72 -152q-71 -63 -189 -63q-122 0 -197.5 59.5t-96.5 164.5l116 59q30 -167 177 -167q59 0 94.5 26t35.5 68q0 46 -39.5 71.5t-133.5 44.5q-104 21 -161.5 74t-57.5 136q0 86 68 139t178 53
q200 0 266 -180l-104 -60q-42 124 -165 124q-51 0 -84 -19t-33 -54z" />
    <glyph glyph-name="T" unicode="T" horiz-adv-x="592" 
d="M230 578h-214v122h560v-122h-214v-578h-132v578z" />
    <glyph glyph-name="U" unicode="U" horiz-adv-x="699" 
d="M505 700h132v-435q0 -131 -80 -205t-207 -74t-207 74t-80 205v435h132v-422q0 -81 41 -125.5t113 -44.5q73 0 114.5 44.5t41.5 125.5v422z" />
    <glyph glyph-name="V" unicode="V" horiz-adv-x="657" 
d="M396 0h-134l-260 700h143l158 -447l26 -89l26 89l158 447h143z" />
    <glyph glyph-name="W" unicode="W" horiz-adv-x="941" 
d="M340 0h-142l-193 700h139l111 -442q11 -41 17 -76l17 77l114 441h136l114 -441q15 -65 17 -77l17 76l111 442h139l-193 -700h-142l-131 508z" />
    <glyph glyph-name="X" unicode="X" horiz-adv-x="616" 
d="M34 700h141l133 -222l140 222h134l-200 -319l231 -381h-141l-164 270l-163 -270h-142l234 376z" />
    <glyph glyph-name="Y" unicode="Y" horiz-adv-x="602" 
d="M598 700l-231 -426v-274h-132v274l-231 426h145l130 -249q12 -23 22 -51l22 51l130 249h145z" />
    <glyph glyph-name="Z" unicode="Z" horiz-adv-x="613" 
d="M403 578h-355v122h512v-122l-366 -456h383v-122h-542v120z" />
    <glyph glyph-name="bracketleft" unicode="[" horiz-adv-x="347" 
d="M302 -150h-229v850h229v-118h-103v-614h103v-118z" />
    <glyph glyph-name="backslash" unicode="\" horiz-adv-x="537" 
d="M5 730h128l400 -760h-128z" />
    <glyph glyph-name="bracketright" unicode="]" horiz-adv-x="347" 
d="M45 700h229v-850h-229v118h103v614h-103v118z" />
    <glyph glyph-name="asciicircum" unicode="^" horiz-adv-x="497" 
d="M18 430l176 270h110l176 -270h-120l-111 172l-111 -172h-120z" />
    <glyph glyph-name="underscore" unicode="_" horiz-adv-x="512" 
d="M505 -109h-498v102h498v-102z" />
    <glyph glyph-name="grave" unicode="`" horiz-adv-x="324" 
d="M52 708h153l68 -158h-97z" />
    <glyph glyph-name="a" unicode="a" horiz-adv-x="566" 
d="M528 0h-128q-24 30 -24 79q-52 -93 -166 -93q-74 0 -120.5 42.5t-46.5 112.5q0 69 48 110t129 54l149 23v19q0 75 -91 75q-41 0 -65 -15.5t-24 -40.5q0 -6 2 -12l-113 -38q-9 20 -9 42q0 62 57 107q58 45 152 45q217 0 217 -180v-207q0 -75 33 -123zM240 88q59 0 94 38
t35 106v9l-120 -20q-83 -14 -83 -73q0 -29 20 -44.5t54 -15.5z" />
    <glyph glyph-name="b" unicode="b" horiz-adv-x="623" 
d="M189 0h-126v700h126v-265q60 75 162 75t170 -71t68 -191t-69 -191t-170 -71q-105 0 -161 75v-61zM221 145q41 -41 100 -41q61 0 100 41q40 40 40 103t-40 103q-39 41 -100 41q-59 0 -100 -41q-40 -40 -40 -103t40 -103z" />
    <glyph glyph-name="c" unicode="c" horiz-adv-x="560" 
d="M426 195l102 -66q-71 -143 -232 -143q-112 0 -187 72q-74 74 -74 190t76 189t185 73q82 0 141.5 -35.5t85.5 -99.5l-103 -68q-39 85 -125 85q-57 0 -94.5 -40.5t-37.5 -103.5q0 -65 37 -104.5t95 -39.5q47 0 77 22t54 69z" />
    <glyph glyph-name="d" unicode="d" horiz-adv-x="623" 
d="M435 700h126v-700h-126v70q-50 -84 -156 -84q-103 0 -174 71q-70 70 -70 191q0 118 73 190q74 72 171 72q109 0 156 -75v265zM202 145q41 -41 100 -41q60 0 101 41q40 40 40 103t-40 103q-41 41 -101 41q-59 0 -100 -41q-39 -41 -39 -103t39 -103z" />
    <glyph glyph-name="e" unicode="e" horiz-adv-x="574" 
d="M538 262v-44h-382q6 -57 43 -90.5t93 -33.5q91 0 137 91l94 -54q-70 -145 -233 -145q-107 0 -181 73q-74 74 -74 189q0 114 75 188q77 74 186 74q107 0 174 -70q68 -71 68 -178zM292 414q-48 0 -84.5 -29t-51.5 -75h266q-9 49 -43 76.5t-87 27.5z" />
    <glyph glyph-name="f" unicode="f" horiz-adv-x="342" 
d="M91 394h-72v102h72v70q0 88 47 136t129 48q33 0 63 -11l-22 -111q-18 6 -35 6q-56 0 -56 -65v-73h108v-102h-108v-394h-126v394z" />
    <glyph glyph-name="g" unicode="g" horiz-adv-x="597" 
d="M69 9l120 -37q-6 -19 -6 -34q0 -25 29.5 -40.5t80.5 -15.5q122 0 122 136v64q-47 -74 -141 -74q-99 0 -169 70t-70 181q0 108 71 179q70 72 169 72q93 0 140 -68v54h126v-462q0 -121 -66 -186.5t-182 -65.5q-111 0 -174.5 45t-63.5 125q0 31 14 57zM383 362
q-40 38 -95 38q-56 0 -94 -38q-37 -37 -37 -104q0 -66 37 -103t94 -37t95 37q39 37 39 103t-39 104z" />
    <glyph glyph-name="h" unicode="h" horiz-adv-x="600" 
d="M537 335v-335h-126v286q0 50 -26 78t-74 28q-53 0 -87.5 -39.5t-34.5 -100.5v-252h-126v700h126v-282q60 92 172 92q81 0 128.5 -47.5t47.5 -127.5z" />
    <glyph glyph-name="i" unicode="i" horiz-adv-x="250" 
d="M188 0h-126v496h126v-496zM194 568h-138v132h138v-132z" />
    <glyph glyph-name="j" unicode="j" horiz-adv-x="250" 
d="M-49 -201l16 114q19 -8 39 -8q30 0 43 17t13 54v520h126v-534q0 -173 -162 -173q-42 0 -75 10zM194 568h-138v132h138v-132z" />
    <glyph glyph-name="k" unicode="k" horiz-adv-x="540" 
d="M63 700h126v-354l151 150h156l-181 -177l205 -319h-145l-148 232l-38 -37v-195h-126v700z" />
    <glyph glyph-name="l" unicode="l" horiz-adv-x="252" 
d="M189 0h-126v700h126v-700z" />
    <glyph glyph-name="m" unicode="m" horiz-adv-x="852" 
d="M789 347v-347h-126v307q0 93 -78 93q-44 0 -70 -32.5t-26 -91.5v-276h-126v305q0 95 -80 95q-40 0 -67 -33t-27 -89v-278h-126v496h126v-66q53 80 144 80q104 0 138 -85q53 85 158 85q75 0 117.5 -44t42.5 -119z" />
    <glyph glyph-name="n" unicode="n" 
d="M531 338v-338h-126v286q0 106 -101 106q-50 0 -82.5 -39.5t-32.5 -100.5v-252h-126v496h126v-80q61 94 168 94q80 0 127 -47t47 -125z" />
    <glyph glyph-name="o" unicode="o" horiz-adv-x="611" 
d="M496 440q81 -69 81 -192q0 -122 -81 -193q-80 -69 -191 -69t-190 69q-80 71 -80 193q0 123 80 192q79 70 190 70q112 0 191 -70zM205 143q42 -39 100 -39q59 0 101 39q43 40 43 105t-43 104q-41 40 -101 40q-59 0 -100 -40q-42 -39 -42 -104q0 -64 42 -105z" />
    <glyph glyph-name="p" unicode="p" horiz-adv-x="623" 
d="M189 -204h-126v700h126v-71q28 38 74 61.5t98 23.5q97 0 162 -71q66 -71 66 -191q0 -116 -69 -190q-69 -72 -170 -72t-161 75v-265zM421 351q-39 41 -100 41q-59 0 -100 -41q-40 -40 -40 -103q0 -62 40 -103q41 -41 100 -41q61 0 100 41q40 41 40 103q0 63 -40 103z" />
    <glyph glyph-name="q" unicode="q" horiz-adv-x="623" 
d="M435 496h126v-700h-126v270q-51 -80 -160 -80q-97 0 -169 73q-71 74 -71 189q0 118 72 190q73 72 168 72q117 0 160 -85v71zM403 351q-41 41 -101 41q-59 0 -100 -41q-39 -41 -39 -103q0 -61 39 -103q41 -41 100 -41q60 0 101 41q40 41 40 103q0 63 -40 103z" />
    <glyph glyph-name="r" unicode="r" horiz-adv-x="384" 
d="M370 504l-20 -119q-18 7 -41 7q-56 0 -88 -40.5t-32 -106.5v-245h-126v496h126v-79q47 93 138 93q25 0 43 -6z" />
    <glyph glyph-name="s" unicode="s" horiz-adv-x="500" 
d="M180 374q0 -48 117 -70q88 -19 127 -54.5t39 -98.5q0 -71 -54 -118q-53 -47 -142 -47q-83 0 -140.5 40t-86.5 109l101 64q38 -107 128 -107q32 0 55 15.5t23 39.5t-24 38.5t-82 25.5q-81 16 -127 55t-46 100q0 68 54 105q54 39 131 39t125.5 -30t79.5 -95l-91 -54
q-35 87 -112 87q-75 0 -75 -44z" />
    <glyph glyph-name="t" unicode="t" horiz-adv-x="373" 
d="M101 394h-77v102h77v134h126v-134h108v-102h-108v-226q0 -70 63 -70q22 0 42 6l12 -104q-40 -14 -84 -14q-159 0 -159 158v250z" />
    <glyph glyph-name="u" unicode="u" 
d="M63 188v308h126v-279q0 -113 101 -113q52 0 83.5 38t31.5 98v256h126v-496h-126v78q-51 -92 -158 -92q-83 0 -133.5 54t-50.5 148z" />
    <glyph glyph-name="v" unicode="v" horiz-adv-x="533" 
d="M393 496h134l-201 -496h-118l-201 496h134l126 -336z" />
    <glyph glyph-name="w" unicode="w" horiz-adv-x="714" 
d="M297 496h120l89 -332l80 332h122l-138 -496h-122l-91 341l-91 -341h-122l-138 496h122l80 -332z" />
    <glyph glyph-name="x" unicode="x" horiz-adv-x="496" 
d="M20 496h144l83 -133l84 133h146l-155 -231l174 -265h-147l-102 163l-103 -163h-145l181 262z" />
    <glyph glyph-name="y" unicode="y" horiz-adv-x="546" 
d="M72 -200l20 117q21 -12 45 -12q39 0 56 47l16 44l-204 500h143l128 -322l122 322h143l-236 -586q-27 -63 -66.5 -92t-97.5 -29q-39 0 -69 11z" />
    <glyph glyph-name="z" unicode="z" horiz-adv-x="495" 
d="M443 394l-262 -292h279v-102h-424v102l261 292h-250v102h396v-102z" />
    <glyph glyph-name="braceleft" unicode="{" horiz-adv-x="395" 
d="M48 224v102q39 0 57 17.5t18 61.5v108q0 98 44 142.5t135 44.5h48v-118h-25q-76 0 -76 -87v-107q0 -47 -16.5 -72.5t-52.5 -40.5q36 -13 52.5 -38.5t16.5 -74.5v-107q0 -87 76 -87h25v-118h-48q-91 0 -135 44.5t-44 142.5v108q0 43 -18 61t-57 18z" />
    <glyph glyph-name="bar" unicode="|" horiz-adv-x="268" 
d="M195 -110h-122v850h122v-850z" />
    <glyph glyph-name="braceright" unicode="}" horiz-adv-x="395" 
d="M347 326v-102q-39 0 -57 -18t-18 -61v-108q0 -98 -44 -142.5t-135 -44.5h-48v118h25q76 0 76 87v107q0 49 16.5 74.5t52.5 38.5q-37 15 -53 39.5t-16 73.5v107q0 87 -76 87h-25v118h48q91 0 135 -44.5t44 -142.5v-108q0 -44 18 -61.5t57 -17.5z" />
    <glyph glyph-name="asciitilde" unicode="~" horiz-adv-x="461" 
d="M163 317q-18 0 -24.5 -15t4.5 -33l-88 -16q-15 23 -15 53q0 47 30 75.5t76 28.5q41 0 70.5 -16t48 -31.5t33.5 -15.5q27 0 27 25q0 12 -7 23l88 16q15 -23 15 -55q0 -46 -29.5 -74t-76.5 -28q-64 0 -97 31q-32 32 -55 32z" />
    <glyph glyph-name="uni00A0" unicode="&#xa0;" horiz-adv-x="275" 
 />
    <glyph glyph-name="exclamdown" unicode="&#xa1;" horiz-adv-x="277" 
d="M189 288l16 -249v-243h-132v243l16 249h100zM73 496h132v-138h-132v138z" />
    <glyph glyph-name="cent" unicode="&#xa2;" horiz-adv-x="568" 
d="M349 -110h-100v101q-92 18 -151 86q-57 69 -57 171q0 101 58 169q59 69 150 87v116h100v-114q134 -20 180 -131l-103 -68q-29 60 -77 77v-273q47 17 83 84l102 -66q-60 -119 -185 -139v-100zM169 248q0 -102 80 -135v269q-37 -15 -58.5 -50.5t-21.5 -83.5z" />
    <glyph glyph-name="sterling" unicode="&#xa3;" horiz-adv-x="574" 
d="M28 299v98h63q-15 64 -15 104q0 99 67 156t171 57q105 0 164 -53t59 -130q0 -37 -15 -71l-116 20q9 24 9 48q0 35 -28 57.5t-76 22.5q-49 0 -79 -28.5t-30 -80.5q0 -41 15 -102h189v-98h-169q3 -24 3 -51q0 -77 -40 -138h330v-110h-470v94q34 36 47.5 68.5t13.5 80.5
q0 27 -6 56h-87z" />
    <glyph glyph-name="currency" unicode="&#xa4;" horiz-adv-x="651" 
d="M548 350q0 -63 -32 -119l78 -77l-72 -72l-78 78q-53 -33 -117.5 -33t-118.5 33l-78 -78l-72 72l78 77q-32 56 -32 119t32 119l-78 77l72 72l78 -78q54 33 118.5 33t117.5 -33l78 78l72 -72l-78 -77q32 -56 32 -119zM239 259q33 -35 87 -35t87 35t33 90q0 57 -33 91
q-33 36 -87 36t-87 -36q-33 -34 -33 -91q0 -55 33 -90z" />
    <glyph glyph-name="yen" unicode="&#xa5;" horiz-adv-x="605" 
d="M237 112h-146v102h146v60h-146v102h93l-170 324h142l123 -249q15 -29 24 -54l24 54l123 249h142l-170 -324h93v-102h-146v-60h146v-102h-146v-112h-132v112z" />
    <glyph glyph-name="brokenbar" unicode="&#xa6;" horiz-adv-x="268" 
d="M195 740v-354h-122v354h122zM73 -110v354h122v-354h-122z" />
    <glyph glyph-name="section" unicode="&#xa7;" horiz-adv-x="524" 
d="M56 335q0 58 46 98q-42 42 -42 110q0 78 56 125q56 46 142 46q154 0 220 -139l-85 -62q-43 105 -136 105q-40 0 -65.5 -19.5t-25.5 -51.5q0 -68 136 -98q88 -19 127.5 -55t39.5 -99t-45 -105q41 -43 41 -112q0 -79 -57 -125q-55 -46 -141 -46q-156 0 -220 139l85 62
q44 -105 136 -105q40 0 65.5 19t25.5 52q0 70 -136 98q-79 16 -123 58t-44 105zM283 256q37 -9 66 -21q20 20 20 42q0 31 -29.5 52t-97.5 36q-38 9 -66 21q-20 -18 -20 -42q0 -31 29.5 -52t97.5 -36z" />
    <glyph glyph-name="dieresis" unicode="&#xa8;" horiz-adv-x="413" 
d="M356 576h-118v124h118v-124zM176 576h-118v124h118v-124z" />
    <glyph glyph-name="copyright" unicode="&#xa9;" horiz-adv-x="827" 
d="M156 92q-106 106 -106 257t107 258t257 107t257 -107t107 -258q0 -150 -107 -257q-106 -106 -257 -106t-258 106zM218 547q-80 -82 -80 -198q0 -115 80 -197q82 -80 196 -80q115 0 195 80q81 81 81 197q0 117 -81 198q-79 81 -195 81q-115 0 -196 -81zM517 309l79 -52
q-56 -111 -180 -111q-87 0 -146 56q-58 57 -58 148q0 89 59 146q59 58 145 58q63 0 109 -27.5t67 -77.5l-80 -53q-32 66 -97 66q-45 0 -74 -31.5t-29 -81.5t29 -80.5t74 -30.5q66 0 102 71z" />
    <glyph glyph-name="ordfeminine" unicode="&#xaa;" horiz-adv-x="396" 
d="M378 300h-90q-15 17 -15 55q-41 -62 -115 -62q-52 0 -84.5 30t-32.5 78t37 78t99 39l92 15v9q0 52 -64 52q-29 0 -47 -10.5t-18 -26.5q0 -6 1 -9l-80 -29q-6 12 -6 29q0 45 41.5 77t108.5 32q151 0 151 -125v-144q0 -56 22 -88zM180 365q40 0 64.5 26t24.5 70v9l-84 -13
q-58 -7 -58 -49q0 -20 14 -31.5t39 -11.5z" />
    <glyph glyph-name="guillemotleft" unicode="&#xab;" 
d="M256 275l167 213h141l-166 -213l166 -213h-141zM40 275l167 213h141l-166 -213l166 -213h-141z" />
    <glyph glyph-name="logicalnot" unicode="&#xac;" horiz-adv-x="549" 
d="M486 416v-242h-118v140h-328v102h446z" />
    <glyph glyph-name="uni00AD" unicode="&#xad;" horiz-adv-x="468" 
d="M428 260h-388v102h388v-102z" />
    <glyph glyph-name="registered" unicode="&#xae;" horiz-adv-x="827" 
d="M570 151h-97l-91 153h-27v-153h-88v398h163q68 0 106 -33.5t38 -89.5q0 -44 -27 -76.5t-72 -42.5zM427 475h-72v-99h72q62 0 62 50q0 49 -62 49zM156 92q-106 106 -106 257t107 258t257 107t257 -107t107 -258q0 -150 -107 -257q-106 -106 -257 -106t-258 106zM218 547
q-80 -82 -80 -198q0 -115 80 -197q82 -80 196 -80q115 0 195 80q81 81 81 197q0 117 -81 198q-79 81 -195 81q-115 0 -196 -81z" />
    <glyph glyph-name="overscore" unicode="&#xaf;" horiz-adv-x="327" 
d="M288 588h-248v94h248v-94z" />
    <glyph glyph-name="degree" unicode="&#xb0;" horiz-adv-x="354" 
d="M77 476q-40 40 -40 99t40 99t99 40q60 0 100 -40q41 -41 41 -99t-41 -99q-40 -40 -100 -40q-59 0 -99 40zM177 636q-27 0 -43.5 -17t-16.5 -44q0 -26 16.5 -43.5t42.5 -17.5q27 0 44 17.5t17 43.5q0 27 -16.5 44t-43.5 17z" />
    <glyph glyph-name="plusminus" unicode="&#xb1;" horiz-adv-x="574" 
d="M236 374h-191v102h191v191h102v-191h191v-102h-191v-191h-102v191zM529 0h-484v102h484v-102z" />
    <glyph glyph-name="uni00B2" unicode="&#xb2;" horiz-adv-x="339" 
d="M53 350v53l132 127q35 32 35 65q0 41 -43 41q-21 0 -34 -11t-13 -31q0 -12 4 -24l-76 -11q-7 15 -7 40q0 43 35 75q34 33 91 33t91 -28t34 -75q0 -35 -13.5 -61t-47.5 -61l-65 -63h129v-69h-252z" />
    <glyph glyph-name="uni00B3" unicode="&#xb3;" horiz-adv-x="347" 
d="M50 484l79 -17q-2 -8 -2 -15q0 -40 48 -40q22 0 36.5 12t14.5 32q0 49 -82 49v60q32 0 50.5 11t18.5 30q0 35 -41 35q-44 0 -44 -33q0 -11 3 -17l-73 -10q-5 13 -5 27q0 41 33 70t86 29q57 0 88.5 -23.5t31.5 -63.5q0 -44 -45 -75q63 -24 63 -91q0 -51 -37.5 -81
t-99.5 -30q-59 0 -94.5 29.5t-35.5 75.5q0 23 7 36z" />
    <glyph glyph-name="acute" unicode="&#xb4;" horiz-adv-x="324" 
d="M149 550h-97l68 158h153z" />
    <glyph glyph-name="mu" unicode="&#xb5;" 
d="M189 -204h-126v700h126v-279q0 -113 101 -113q52 0 83.5 38t31.5 98v256h126v-496h-126v78q-51 -92 -158 -92q-34 0 -61 9l1 -26q2 -36 2 -42v-131z" />
    <glyph glyph-name="paragraph" unicode="&#xb6;" horiz-adv-x="654" 
d="M447 598h-72v-718h-112v432h-9q-94 0 -156 53q-61 52 -61 141t61 141q62 53 156 53h370v-102h-65v-718h-112v718z" />
    <glyph glyph-name="middot" unicode="&#xb7;" horiz-adv-x="214" 
d="M174 290h-134v134h134v-134z" />
    <glyph glyph-name="cedilla" unicode="&#xb8;" horiz-adv-x="295" 
d="M99 -112l-37 33l33 95h70l-41 -69q16 9 40 9q34 0 56 -22t22 -56q0 -37 -27 -59.5t-68 -22.5q-79 0 -94 61l66 17q4 -22 28 -22q25 0 25 25q0 29 -28 29q-24 0 -45 -18z" />
    <glyph glyph-name="uni00B9" unicode="&#xb9;" horiz-adv-x="254" 
d="M38 580v77q59 0 78 43h80v-350h-84v254q-19 -24 -74 -24z" />
    <glyph glyph-name="ordmasculine" unicode="&#xba;" horiz-adv-x="457" 
d="M229 293q-77 0 -133 48q-55 48 -55 134t55 134q56 48 132 48q78 0 133 -48q56 -48 56 -134t-56 -134q-55 -48 -132 -48zM322 475q0 43 -26 69t-68 26q-40 0 -66.5 -26.5t-26.5 -68.5t26.5 -68.5t66.5 -26.5q41 0 67.5 26.5t26.5 68.5z" />
    <glyph glyph-name="guillemotright" unicode="&#xbb;" 
d="M338 275l-167 -213h-141l166 213l-166 213h141zM554 275l-167 -213h-141l166 213l-166 213h141z" />
    <glyph glyph-name="onequarter" unicode="&#xbc;" horiz-adv-x="726" 
d="M38 580v77q59 0 78 43h80v-350h-84v254q-19 -24 -74 -24zM617 658l-435 -665l-72 49l435 665zM557 58h-162v66l162 226h84v-226h36v-66h-36v-58h-84v58zM557 124v116l-83 -116h83z" />
    <glyph glyph-name="onehalf" unicode="&#xbd;" horiz-adv-x="753" 
d="M38 580v77q59 0 78 43h80v-350h-84v254q-19 -24 -74 -24zM617 658l-435 -665l-72 49l435 665zM455 0v53l132 127q35 32 35 65q0 41 -43 41q-21 0 -34 -11t-13 -31q0 -12 4 -24l-76 -11q-7 15 -7 40q0 43 35 75q34 33 91 33q58 0 91.5 -27.5t33.5 -75.5q0 -35 -13.5 -61.5
t-47.5 -60.5l-65 -63h129v-69h-252z" />
    <glyph glyph-name="threequarters" unicode="&#xbe;" horiz-adv-x="795" 
d="M676 658l-435 -665l-72 49l435 665zM626 58h-162v66l162 226h84v-226h36v-66h-36v-58h-84v58zM626 124v116l-83 -116h83zM50 484l79 -17q-2 -8 -2 -15q0 -40 48 -40q22 0 36.5 12t14.5 32q0 49 -82 49v60q32 0 50.5 11t18.5 30q0 35 -41 35q-44 0 -44 -33q0 -11 3 -17
l-73 -10q-5 13 -5 27q0 41 33 70t86 29q57 0 88.5 -23.5t31.5 -63.5q0 -44 -45 -75q63 -24 63 -91q0 -51 -37.5 -81t-99.5 -30q-59 0 -94.5 29.5t-35.5 75.5q0 23 7 36z" />
    <glyph glyph-name="questiondown" unicode="&#xbf;" horiz-adv-x="549" 
d="M221 288h126v-16q0 -46 -19 -79.5t-67 -72.5q-51 -40 -71.5 -70.5t-20.5 -68.5t29.5 -61.5t74.5 -23.5q48 0 80.5 27.5t32.5 71.5q0 22 -7 37l115 24q14 -31 14 -72q0 -78 -65 -140t-167 -62q-107 0 -169 51.5t-62 138.5q0 59 27 104q28 46 102 111q26 23 36.5 45.5
t10.5 55.5zM218 496h132v-138h-132v138z" />
    <glyph glyph-name="Agrave" unicode="&#xc0;" horiz-adv-x="701" 
d="M146 0h-141l283 700h126l283 -700h-141l-70 183h-270zM351 545l-26 -76l-64 -168h180l-64 168q-16 41 -26 76zM176 912h153l68 -158h-97z" />
    <glyph glyph-name="Aacute" unicode="&#xc1;" horiz-adv-x="701" 
d="M146 0h-141l283 700h126l283 -700h-141l-70 183h-270zM351 545l-26 -76l-64 -168h180l-64 168q-16 41 -26 76zM403 754h-97l68 158h153z" />
    <glyph glyph-name="Acircumflex" unicode="&#xc2;" horiz-adv-x="701" 
d="M146 0h-141l283 700h126l283 -700h-141l-70 183h-270zM351 545l-26 -76l-64 -168h180l-64 168q-16 41 -26 76zM292 754h-99l113 157h90l113 -157h-99l-59 60z" />
    <glyph glyph-name="Atilde" unicode="&#xc3;" horiz-adv-x="701" 
d="M146 0h-141l283 700h126l283 -700h-141l-70 183h-270zM351 545l-26 -76l-64 -168h180l-64 168q-16 41 -26 76zM278 820q-9 0 -16 -6.5t-7 -15.5q0 -13 7 -26l-74 -15q-14 23 -14 53q0 41 29 66t69 25q63 0 94 -33q33 -33 58 -33q10 0 16.5 6.5t6.5 15.5q0 13 -7 26l74 15
q14 -23 14 -53q0 -41 -29 -66t-69 -25t-68 16.5t-47 33t-37 16.5z" />
    <glyph glyph-name="Adieresis" unicode="&#xc4;" horiz-adv-x="701" 
d="M146 0h-141l283 700h126l283 -700h-141l-70 183h-270zM351 545l-26 -76l-64 -168h180l-64 168q-16 41 -26 76zM500 780h-118v124h118v-124zM320 780h-118v124h118v-124z" />
    <glyph glyph-name="Aring" unicode="&#xc5;" horiz-adv-x="701" 
d="M146 0h-141l283 700h126l283 -700h-141l-70 183h-270zM351 545l-26 -76l-64 -168h180l-64 168q-16 41 -26 76zM282 771q-27 29 -27 68t28 67t68 28t68 -28t28 -67t-28 -67t-68 -28t-69 27zM351 805q20 -2 28.5 16t0 36t-28.5 16q-33 0 -33 -34t33 -34z" />
    <glyph glyph-name="AE" unicode="&#xc6;" horiz-adv-x="984" 
d="M929 0h-486v183h-219l-81 -183h-138l320 700h601v-118h-351v-161h323v-118h-323v-185h354v-118zM443 582h-42l-125 -281h167v281z" />
    <glyph glyph-name="Ccedilla" unicode="&#xc7;" horiz-adv-x="768" 
d="M355 -114l-37 33l25 72q-132 19 -215 116q-82 97 -82 243q0 162 103 262q103 102 260 102q108 0 189 -51q82 -49 118 -132l-107 -77q-65 138 -204 138q-94 0 -160 -67q-65 -67 -65 -175q0 -106 65 -174t160 -68q138 0 212 140l103 -74q-69 -103 -137 -145
q-68 -43 -179 -43l-24 -41q16 9 40 9q34 0 56 -22t22 -56q0 -37 -27.5 -59.5t-67.5 -22.5q-79 0 -94 61l66 17q4 -22 28 -22q25 0 25 25q0 29 -28 29q-22 0 -45 -18z" />
    <glyph glyph-name="Egrave" unicode="&#xc8;" horiz-adv-x="614" 
d="M559 0h-486v700h483v-118h-351v-161h323v-118h-323v-185h354v-118zM180 912h153l68 -158h-97z" />
    <glyph glyph-name="Eacute" unicode="&#xc9;" horiz-adv-x="614" 
d="M559 0h-486v700h483v-118h-351v-161h323v-118h-323v-185h354v-118zM336 754h-97l68 158h153z" />
    <glyph glyph-name="Ecircumflex" unicode="&#xca;" horiz-adv-x="614" 
d="M559 0h-486v700h483v-118h-351v-161h323v-118h-323v-185h354v-118zM260 754h-99l113 157h90l113 -157h-99l-59 60z" />
    <glyph glyph-name="Edieresis" unicode="&#xcb;" horiz-adv-x="614" 
d="M559 0h-486v700h483v-118h-351v-161h323v-118h-323v-185h354v-118zM468 780h-118v124h118v-124zM288 780h-118v124h118v-124z" />
    <glyph glyph-name="Igrave" unicode="&#xcc;" horiz-adv-x="277" 
d="M205 0h-132v700h132v-700zM-16 912h153l68 -158h-97z" />
    <glyph glyph-name="Iacute" unicode="&#xcd;" horiz-adv-x="277" 
d="M205 0h-132v700h132v-700zM170 754h-97l68 158h153z" />
    <glyph glyph-name="Icircumflex" unicode="&#xce;" horiz-adv-x="277" 
d="M205 0h-132v700h132v-700zM80 754h-99l113 157h90l113 -157h-99l-59 60z" />
    <glyph glyph-name="Idieresis" unicode="&#xcf;" horiz-adv-x="277" 
d="M205 0h-132v700h132v-700zM288 780h-118v124h118v-124zM108 780h-118v124h118v-124z" />
    <glyph glyph-name="Eth" unicode="&#xd0;" horiz-adv-x="748" 
d="M111 295h-78v110h78v295h211q171 0 276 -90q105 -88 105 -260q0 -171 -105 -261q-106 -89 -276 -89h-211v295zM243 122h88q111 0 174.5 59t63.5 168q0 110 -63.5 169.5t-174.5 59.5h-88v-173h155v-110h-155v-173z" />
    <glyph glyph-name="Ntilde" unicode="&#xd1;" horiz-adv-x="729" 
d="M201 0h-128v700h134l292 -445q25 -42 30 -55v500h128v-700h-134l-292 448q-25 42 -30 55v-503zM292 820q-17 0 -21.5 -13t5.5 -35l-74 -15q-14 20 -14 53q0 41 29 66t69 25q36 0 66.5 -16.5t52 -33t33.5 -16.5q10 0 16.5 6.5t6.5 15.5q0 13 -7 26l74 15q14 -20 14 -53
q0 -41 -29 -66t-69 -25q-35 0 -65.5 16.5t-51.5 33t-35 16.5z" />
    <glyph glyph-name="Ograve" unicode="&#xd2;" horiz-adv-x="812" 
d="M663 609q103 -103 103 -260t-103 -260q-102 -103 -257 -103q-154 0 -257 103t-103 260q0 158 103 261q104 104 257 104q155 0 257 -105zM632 350q0 112 -64 176q-64 66 -162 66t-162 -66q-64 -65 -64 -177q0 -111 64 -176q65 -65 162 -65t162 65q64 65 64 177zM266 912
h153l68 -158h-97z" />
    <glyph glyph-name="Oacute" unicode="&#xd3;" horiz-adv-x="812" 
d="M663 609q103 -103 103 -260t-103 -260q-102 -103 -257 -103q-154 0 -257 103t-103 260q0 158 103 261q104 104 257 104q155 0 257 -105zM632 350q0 112 -64 176q-64 66 -162 66t-162 -66q-64 -65 -64 -177q0 -111 64 -176q65 -65 162 -65t162 65q64 65 64 177zM423 754
h-97l68 158h153z" />
    <glyph glyph-name="Ocircumflex" unicode="&#xd4;" horiz-adv-x="812" 
d="M663 609q103 -103 103 -260t-103 -260q-102 -103 -257 -103q-154 0 -257 103t-103 260q0 158 103 261q104 104 257 104q155 0 257 -105zM632 350q0 112 -64 176q-64 66 -162 66t-162 -66q-64 -65 -64 -177q0 -111 64 -176q65 -65 162 -65t162 65q64 65 64 177zM347 754
h-99l113 157h90l113 -157h-99l-59 60z" />
    <glyph glyph-name="Otilde" unicode="&#xd5;" horiz-adv-x="812" 
d="M663 609q103 -103 103 -260t-103 -260q-102 -103 -257 -103q-154 0 -257 103t-103 260q0 158 103 261q104 104 257 104q155 0 257 -105zM632 350q0 112 -64 176q-64 66 -162 66t-162 -66q-64 -65 -64 -177q0 -111 64 -176q65 -65 162 -65t162 65q64 65 64 177zM333 820
q-17 0 -21.5 -13t5.5 -35l-74 -15q-14 23 -14 53q0 41 29 66t69 25q61 0 94 -33t58 -33q9 0 16 6.5t7 15.5q0 13 -7 26l74 15q14 -20 14 -53q0 -41 -29 -66t-69 -25q-35 0 -65.5 16.5t-51.5 33t-35 16.5z" />
    <glyph glyph-name="Odieresis" unicode="&#xd6;" horiz-adv-x="812" 
d="M663 609q103 -103 103 -260t-103 -260q-102 -103 -257 -103q-154 0 -257 103t-103 260q0 158 103 261q104 104 257 104q155 0 257 -105zM632 350q0 112 -64 176q-64 66 -162 66t-162 -66q-64 -65 -64 -177q0 -111 64 -176q65 -65 162 -65t162 65q64 65 64 177zM555 780
h-118v124h118v-124zM375 780h-118v124h118v-124z" />
    <glyph glyph-name="multiply" unicode="&#xd7;" horiz-adv-x="556" 
d="M278 293l-135 -135l-72 72l135 135l-135 135l72 72l135 -135l135 135l72 -72l-135 -135l135 -135l-72 -72z" />
    <glyph glyph-name="Oslash" unicode="&#xd8;" horiz-adv-x="812" 
d="M766 350q0 -158 -103 -261q-102 -103 -257 -103q-58 0 -118 18l-35 -66l-98 56l32 62q-67 49 -104 125.5t-37 168.5q0 157 103 260q104 104 257 104q59 0 118 -18l35 66l98 -56l-32 -62q67 -51 104 -127.5t37 -166.5zM406 108q97 0 162 65q64 65 64 177q0 114 -67 180
l-219 -415q24 -7 60 -7zM180 350q0 -113 67 -180l219 415q-25 7 -60 7q-98 0 -162 -66q-64 -65 -64 -176z" />
    <glyph glyph-name="Ugrave" unicode="&#xd9;" horiz-adv-x="699" 
d="M505 700h132v-435q0 -131 -80 -205t-207 -74t-207 74t-80 205v435h132v-422q0 -81 41 -125.5t113 -44.5q73 0 114.5 44.5t41.5 125.5v422zM210 912h153l68 -158h-97z" />
    <glyph glyph-name="Uacute" unicode="&#xda;" horiz-adv-x="699" 
d="M505 700h132v-435q0 -131 -80 -205t-207 -74t-207 74t-80 205v435h132v-422q0 -81 41 -125.5t113 -44.5q73 0 114.5 44.5t41.5 125.5v422zM367 754h-97l68 158h153z" />
    <glyph glyph-name="Ucircumflex" unicode="&#xdb;" horiz-adv-x="699" 
d="M505 700h132v-435q0 -131 -80 -205t-207 -74t-207 74t-80 205v435h132v-422q0 -81 41 -125.5t113 -44.5q73 0 114.5 44.5t41.5 125.5v422zM291 754h-99l113 157h90l113 -157h-99l-59 60z" />
    <glyph glyph-name="Udieresis" unicode="&#xdc;" horiz-adv-x="699" 
d="M505 700h132v-435q0 -131 -80 -205t-207 -74t-207 74t-80 205v435h132v-422q0 -81 41 -125.5t113 -44.5q73 0 114.5 44.5t41.5 125.5v422zM499 780h-118v124h118v-124zM319 780h-118v124h118v-124z" />
    <glyph glyph-name="Yacute" unicode="&#xdd;" horiz-adv-x="602" 
d="M598 700l-231 -426v-274h-132v274l-231 426h145l130 -249q12 -23 22 -51l22 51l130 249h145zM308 754h-97l68 158h153z" />
    <glyph glyph-name="Thorn" unicode="&#xde;" horiz-adv-x="697" 
d="M205 0h-132v700h132v-122h186q122 0 192 -60.5t70 -168.5q0 -107 -70 -167t-192 -60h-186v-122zM387 460h-182v-220h182q66 0 100 28.5t34 80.5q0 53 -34 82t-100 29z" />
    <glyph glyph-name="germandbls" unicode="&#xdf;" horiz-adv-x="602" 
d="M277 326h-31v110h35q48 0 76.5 25t28.5 67q0 34 -23.5 55t-64.5 21t-68 -28.5t-27 -78.5v-497h-126v394h-56v102h56v7q0 100 65 156q64 55 159 55t151 -47q57 -47 57 -119q0 -106 -101 -156q153 -58 153 -209q0 -89 -54 -143t-141 -54q-90 0 -145 45l55 98q34 -33 77 -33
q35 0 58.5 25t23.5 69q0 62 -46 99q-44 37 -112 37z" />
    <glyph glyph-name="agrave" unicode="&#xe0;" horiz-adv-x="566" 
d="M528 0h-128q-24 30 -24 79q-52 -93 -166 -93q-74 0 -120.5 42.5t-46.5 112.5q0 69 48 110t129 54l149 23v19q0 75 -91 75q-41 0 -65 -15.5t-24 -40.5q0 -6 2 -12l-113 -38q-9 20 -9 42q0 62 57 107q58 45 152 45q217 0 217 -180v-207q0 -75 33 -123zM240 88q59 0 94 38
t35 106v9l-120 -20q-83 -14 -83 -73q0 -29 20 -44.5t54 -15.5zM133 710h153l68 -158h-97z" />
    <glyph glyph-name="aacute" unicode="&#xe1;" horiz-adv-x="566" 
d="M528 0h-128q-24 30 -24 79q-52 -93 -166 -93q-74 0 -120.5 42.5t-46.5 112.5q0 69 48 110t129 54l149 23v19q0 75 -91 75q-41 0 -65 -15.5t-24 -40.5q0 -6 2 -12l-113 -38q-9 20 -9 42q0 62 57 107q58 45 152 45q217 0 217 -180v-207q0 -75 33 -123zM240 88q59 0 94 38
t35 106v9l-120 -20q-83 -14 -83 -73q0 -29 20 -44.5t54 -15.5zM300 552h-97l68 158h153z" />
    <glyph glyph-name="acircumflex" unicode="&#xe2;" horiz-adv-x="566" 
d="M528 0h-128q-24 30 -24 79q-52 -93 -166 -93q-74 0 -120.5 42.5t-46.5 112.5q0 69 48 110t129 54l149 23v19q0 75 -91 75q-41 0 -65 -15.5t-24 -40.5q0 -6 2 -12l-113 -38q-9 20 -9 42q0 62 57 107q58 45 152 45q217 0 217 -180v-207q0 -75 33 -123zM240 88q59 0 94 38
t35 106v9l-120 -20q-83 -14 -83 -73q0 -29 20 -44.5t54 -15.5zM224 553h-99l113 157h90l113 -157h-99l-59 60z" />
    <glyph glyph-name="atilde" unicode="&#xe3;" horiz-adv-x="566" 
d="M528 0h-128q-24 30 -24 79q-52 -93 -166 -93q-74 0 -120.5 42.5t-46.5 112.5q0 69 48 110t129 54l149 23v19q0 75 -91 75q-41 0 -65 -15.5t-24 -40.5q0 -6 2 -12l-113 -38q-9 20 -9 42q0 62 57 107q58 45 152 45q217 0 217 -180v-207q0 -75 33 -123zM240 88q59 0 94 38
t35 106v9l-120 -20q-83 -14 -83 -73q0 -29 20 -44.5t54 -15.5zM204 619q-17 0 -21.5 -13t5.5 -35l-74 -15q-14 23 -14 53q0 41 29 66t69 25q61 0 94 -33t58 -33q9 0 16 6.5t7 15.5q0 13 -7 26l74 15q14 -20 14 -53q0 -41 -28.5 -66t-69.5 -25q-35 0 -65.5 16.5t-51.5 33
t-35 16.5z" />
    <glyph glyph-name="adieresis" unicode="&#xe4;" horiz-adv-x="566" 
d="M528 0h-128q-24 30 -24 79q-52 -93 -166 -93q-74 0 -120.5 42.5t-46.5 112.5q0 69 48 110t129 54l149 23v19q0 75 -91 75q-41 0 -65 -15.5t-24 -40.5q0 -6 2 -12l-113 -38q-9 20 -9 42q0 62 57 107q58 45 152 45q217 0 217 -180v-207q0 -75 33 -123zM240 88q59 0 94 38
t35 106v9l-120 -20q-83 -14 -83 -73q0 -29 20 -44.5t54 -15.5zM432 579h-118v124h118v-124zM252 579h-118v124h118v-124z" />
    <glyph glyph-name="aring" unicode="&#xe5;" horiz-adv-x="566" 
d="M528 0h-128q-24 30 -24 79q-52 -93 -166 -93q-74 0 -120.5 42.5t-46.5 112.5q0 69 48 110t129 54l149 23v19q0 75 -91 75q-41 0 -65 -15.5t-24 -40.5q0 -6 2 -12l-113 -38q-9 20 -9 42q0 62 57 107q58 45 152 45q217 0 217 -180v-207q0 -75 33 -123zM240 88q59 0 94 38
t35 106v9l-120 -20q-83 -14 -83 -73q0 -29 20 -44.5t54 -15.5zM283 730q39 0 67.5 -28t28.5 -67t-28 -67t-68 -28t-68 28t-28 67t28 67t68 28zM259 659q-9 -9 -9 -24.5t9 -24.5q10 -9 24.5 -9t23.5 9t9 24.5t-9 24.5q-9 10 -23.5 10t-24.5 -10z" />
    <glyph glyph-name="ae" unicode="&#xe6;" horiz-adv-x="914" 
d="M878 262v-44h-382q6 -57 43 -90.5t93 -33.5q91 0 137 91l94 -54q-70 -145 -233 -145q-66 0 -121.5 29.5t-89.5 83.5q-27 -55 -78.5 -84t-113.5 -29q-82 0 -133 42t-51 113q0 78 62 123.5t168 45.5h97v13q0 54 -19.5 76.5t-71.5 22.5q-41 0 -65 -15.5t-24 -40.5
q0 -6 2 -12l-113 -38q-9 20 -9 42q0 62 54 107t144 45q131 0 185 -71q74 71 183 71q107 0 174 -70q68 -71 68 -178zM239 88q57 0 94 34.5t37 90.5v5h-105q-47 0 -73 -19.5t-26 -52.5q0 -27 20 -42.5t53 -15.5zM632 414q-48 0 -84.5 -29t-51.5 -75h266q-9 49 -43 76.5
t-87 27.5z" />
    <glyph glyph-name="ccedilla" unicode="&#xe7;" horiz-adv-x="560" 
d="M248 -114l-37 33l25 73q-91 19 -146 88t-55 168q0 116 76 189t185 73q82 0 141.5 -35.5t85.5 -99.5l-103 -68q-39 85 -125 85q-57 0 -94.5 -40.5t-37.5 -103.5q0 -65 37 -104.5t95 -39.5q47 0 77 22t54 69l102 -66q-71 -142 -231 -143l-24 -41q17 9 40 9q35 0 56.5 -22
t21.5 -56q0 -37 -27.5 -59.5t-67.5 -22.5q-78 0 -94 61l66 17q4 -22 28 -22q25 0 25 25q0 29 -28 29q-23 0 -45 -18z" />
    <glyph glyph-name="egrave" unicode="&#xe8;" horiz-adv-x="574" 
d="M538 262v-44h-382q6 -57 43 -90.5t93 -33.5q91 0 137 91l94 -54q-70 -145 -233 -145q-107 0 -181 73q-74 74 -74 189q0 114 75 188q77 74 186 74q107 0 174 -70q68 -71 68 -178zM292 414q-48 0 -84.5 -29t-51.5 -75h266q-9 49 -43 76.5t-87 27.5zM147 708h153l68 -158
h-97z" />
    <glyph glyph-name="eacute" unicode="&#xe9;" horiz-adv-x="574" 
d="M538 262v-44h-382q6 -57 43 -90.5t93 -33.5q91 0 137 91l94 -54q-70 -145 -233 -145q-107 0 -181 73q-74 74 -74 189q0 114 75 188q77 74 186 74q107 0 174 -70q68 -71 68 -178zM292 414q-48 0 -84.5 -29t-51.5 -75h266q-9 49 -43 76.5t-87 27.5zM304 550h-97l68 158h153
z" />
    <glyph glyph-name="ecircumflex" unicode="&#xea;" horiz-adv-x="574" 
d="M538 262v-44h-382q6 -57 43 -90.5t93 -33.5q91 0 137 91l94 -54q-70 -145 -233 -145q-107 0 -181 73q-74 74 -74 189q0 114 75 188q77 74 186 74q107 0 174 -70q68 -71 68 -178zM292 414q-48 0 -84.5 -29t-51.5 -75h266q-9 49 -43 76.5t-87 27.5zM228 550h-99l113 157h90
l113 -157h-99l-59 60z" />
    <glyph glyph-name="edieresis" unicode="&#xeb;" horiz-adv-x="574" 
d="M538 262v-44h-382q6 -57 43 -90.5t93 -33.5q91 0 137 91l94 -54q-70 -145 -233 -145q-107 0 -181 73q-74 74 -74 189q0 114 75 188q77 74 186 74q107 0 174 -70q68 -71 68 -178zM292 414q-48 0 -84.5 -29t-51.5 -75h266q-9 49 -43 76.5t-87 27.5zM436 576h-118v124h118
v-124zM256 576h-118v124h118v-124z" />
    <glyph glyph-name="igrave" unicode="&#xec;" horiz-adv-x="250" 
d="M188 0h-126v496h126v-496zM-33 708h153l68 -158h-97z" />
    <glyph glyph-name="iacute" unicode="&#xed;" horiz-adv-x="250" 
d="M188 0h-126v496h126v-496zM159 550h-97l68 158h153z" />
    <glyph glyph-name="icircumflex" unicode="&#xee;" horiz-adv-x="250" 
d="M188 0h-126v496h126v-496zM66 550h-99l113 157h90l113 -157h-99l-59 60z" />
    <glyph glyph-name="idieresis" unicode="&#xef;" horiz-adv-x="250" 
d="M188 0h-126v496h126v-496zM274 576h-118v124h118v-124zM94 576h-118v124h118v-124z" />
    <glyph glyph-name="eth" unicode="&#xf0;" horiz-adv-x="590" 
d="M331 536l-104 -40l-31 83l53 20q-57 37 -107 57l58 94q101 -45 171 -103l106 41l32 -83l-67 -26q107 -127 107 -296q0 -137 -68 -217t-188 -80q-112 0 -182 67t-70 174q0 102 69 168q70 67 170 67q92 0 139 -53q-25 68 -88 127zM388 319q-37 37 -92 37t-93 -37
q-38 -36 -38 -96q0 -59 38 -95q39 -36 93 -36t92 36q39 36 39 95q0 60 -39 96z" />
    <glyph glyph-name="ntilde" unicode="&#xf1;" 
d="M531 338v-338h-126v286q0 106 -101 106q-50 0 -82.5 -39.5t-32.5 -100.5v-252h-126v496h126v-80q61 94 168 94q80 0 127 -47t47 -125zM224 616q-10 0 -16.5 -6t-6.5 -16q0 -13 7 -26l-74 -15q-14 20 -14 53q0 41 29 66t69 25q35 0 65.5 -16.5t52 -33t34.5 -16.5
q10 0 16.5 6.5t6.5 15.5q0 13 -7 26l74 15q14 -20 14 -53q0 -41 -29 -66t-69 -25q-36 0 -66.5 16.5t-52 33t-33.5 16.5z" />
    <glyph glyph-name="ograve" unicode="&#xf2;" horiz-adv-x="611" 
d="M496 440q81 -69 81 -192q0 -122 -81 -193q-80 -69 -191 -69t-190 69q-80 71 -80 193q0 123 80 192q79 70 190 70q112 0 191 -70zM205 143q42 -39 100 -39q59 0 101 39q43 40 43 105t-43 104q-41 40 -101 40q-59 0 -100 -40q-42 -39 -42 -104q0 -64 42 -105zM144 708h153
l68 -158h-97z" />
    <glyph glyph-name="oacute" unicode="&#xf3;" horiz-adv-x="611" 
d="M496 440q81 -69 81 -192q0 -122 -81 -193q-80 -69 -191 -69t-190 69q-80 71 -80 193q0 123 80 192q79 70 190 70q112 0 191 -70zM205 143q42 -39 100 -39q59 0 101 39q43 40 43 105t-43 104q-41 40 -101 40q-59 0 -100 -40q-42 -39 -42 -104q0 -64 42 -105zM345 550h-97
l68 158h153z" />
    <glyph glyph-name="ocircumflex" unicode="&#xf4;" horiz-adv-x="611" 
d="M496 440q81 -69 81 -192q0 -122 -81 -193q-80 -69 -191 -69t-190 69q-80 71 -80 193q0 123 80 192q79 70 190 70q112 0 191 -70zM205 143q42 -39 100 -39q59 0 101 39q43 40 43 105t-43 104q-41 40 -101 40q-59 0 -100 -40q-42 -39 -42 -104q0 -64 42 -105zM247 550h-99
l113 157h90l113 -157h-99l-59 60z" />
    <glyph glyph-name="otilde" unicode="&#xf5;" horiz-adv-x="611" 
d="M496 440q81 -69 81 -192q0 -122 -81 -193q-80 -69 -191 -69t-190 69q-80 71 -80 193q0 123 80 192q79 70 190 70q112 0 191 -70zM205 143q42 -39 100 -39q59 0 101 39q43 40 43 105t-43 104q-41 40 -101 40q-59 0 -100 -40q-42 -39 -42 -104q0 -64 42 -105zM233 616
q-9 0 -16 -6.5t-7 -15.5q0 -13 7 -26l-74 -15q-14 20 -14 53q0 41 28.5 66t69.5 25q35 0 65.5 -16.5t51.5 -33t35 -16.5q17 0 21.5 13t-5.5 35l74 15q14 -23 14 -53q0 -41 -29 -66t-69 -25q-61 0 -94 33t-58 33z" />
    <glyph glyph-name="odieresis" unicode="&#xf6;" horiz-adv-x="611" 
d="M496 440q81 -69 81 -192q0 -122 -81 -193q-80 -69 -191 -69t-190 69q-80 71 -80 193q0 123 80 192q79 70 190 70q112 0 191 -70zM205 143q42 -39 100 -39q59 0 101 39q43 40 43 105t-43 104q-41 40 -101 40q-59 0 -100 -40q-42 -39 -42 -104q0 -64 42 -105zM455 576h-118
v124h118v-124zM275 576h-118v124h118v-124z" />
    <glyph glyph-name="divide" unicode="&#xf7;" horiz-adv-x="574" 
d="M354 350h-134v134h134v-134zM354 0h-134v134h134v-134zM529 191h-484v102h484v-102z" />
    <glyph glyph-name="oslash" unicode="&#xf8;" horiz-adv-x="611" 
d="M577 248q0 -122 -81 -193q-80 -69 -190 -69q-47 0 -90 13l-24 -41l-83 51l21 35q-95 72 -95 204q0 123 80 192q79 70 191 70q48 0 90 -13l24 41l83 -51l-21 -35q95 -72 95 -204zM163 248q0 -53 32 -93l138 235q-24 2 -27 2q-60 0 -101 -40q-42 -39 -42 -104zM279 106
l27 -2q58 0 100 39q43 40 43 105q0 53 -32 93z" />
    <glyph glyph-name="ugrave" unicode="&#xf9;" 
d="M63 188v308h126v-279q0 -113 101 -113q52 0 83.5 38t31.5 98v256h126v-496h-126v78q-51 -92 -158 -92q-83 0 -133.5 54t-50.5 148zM157 708h153l68 -158h-97z" />
    <glyph glyph-name="uacute" unicode="&#xfa;" 
d="M63 188v308h126v-279q0 -113 101 -113q52 0 83.5 38t31.5 98v256h126v-496h-126v78q-51 -92 -158 -92q-83 0 -133.5 54t-50.5 148zM314 550h-97l68 158h153z" />
    <glyph glyph-name="ucircumflex" unicode="&#xfb;" 
d="M63 188v308h126v-279q0 -113 101 -113q52 0 83.5 38t31.5 98v256h126v-496h-126v78q-51 -92 -158 -92q-83 0 -133.5 54t-50.5 148zM238 550h-99l113 157h90l113 -157h-99l-59 60z" />
    <glyph glyph-name="udieresis" unicode="&#xfc;" 
d="M63 188v308h126v-279q0 -113 101 -113q52 0 83.5 38t31.5 98v256h126v-496h-126v78q-51 -92 -158 -92q-83 0 -133.5 54t-50.5 148zM446 576h-118v124h118v-124zM266 576h-118v124h118v-124z" />
    <glyph glyph-name="yacute" unicode="&#xfd;" horiz-adv-x="546" 
d="M72 -200l20 117q21 -12 45 -12q39 0 56 47l16 44l-204 500h143l128 -322l122 322h143l-236 -586q-27 -63 -66.5 -92t-97.5 -29q-39 0 -69 11zM290 550h-97l68 158h153z" />
    <glyph glyph-name="thorn" unicode="&#xfe;" horiz-adv-x="623" 
d="M189 -204h-126v904h126v-275q27 38 74.5 61.5t100.5 23.5q94 0 159 -72q66 -71 66 -190q0 -116 -68 -190q-67 -72 -169 -72q-103 0 -163 75v-265zM421 351q-39 41 -100 41q-59 0 -100 -41q-40 -40 -40 -103q0 -62 40 -103q41 -41 100 -41q61 0 100 41q40 41 40 103
q0 63 -40 103z" />
    <glyph glyph-name="ydieresis" unicode="&#xff;" horiz-adv-x="546" 
d="M72 -200l20 117q21 -12 45 -12q39 0 56 47l16 44l-204 500h143l128 -322l122 322h143l-236 -586q-27 -63 -66.5 -92t-97.5 -29q-39 0 -69 11zM422 576h-118v124h118v-124zM242 576h-118v124h118v-124z" />
    <glyph glyph-name="OE" unicode="&#x152;" horiz-adv-x="1174" 
d="M1118 0h-486v87q-87 -101 -226 -101q-154 0 -257 103t-103 260q0 158 103 261q104 104 257 104q146 0 226 -93v79h483v-118h-351v-161h323v-118h-323v-185h354v-118zM406 108q97 0 161 66q65 68 65 176q0 112 -64 176q-64 66 -162 66t-162 -66q-64 -65 -64 -177
q0 -111 64 -176q65 -65 162 -65z" />
    <glyph glyph-name="oe" unicode="&#x153;" horiz-adv-x="998" 
d="M959 262v-44h-382q6 -57 43 -90.5t93 -33.5q91 0 137 91l94 -54q-70 -145 -233 -145q-119 0 -195 90q-38 -42 -94 -66t-116 -24q-112 0 -191 69q-80 71 -80 193q0 123 80 192q79 70 191 70q60 0 116 -24t94 -68q80 92 201 92q107 0 174 -70q68 -71 68 -178zM205 143
q42 -39 100 -39q59 0 101 39q43 40 43 105t-43 104q-41 40 -101 40q-59 0 -100 -40q-42 -39 -42 -104q0 -64 42 -105zM713 414q-48 0 -84.5 -29t-51.5 -75h266q-9 49 -43 76.5t-87 27.5z" />
    <glyph glyph-name="Ydieresis" unicode="&#x178;" horiz-adv-x="602" 
d="M367 0h-132v274l-231 426h145l130 -249l22 -51q10 28 22 51l130 249h145l-231 -426v-274zM450 780h-118v124h118v-124zM270 780h-118v124h118v-124z" />
    <glyph glyph-name="circumflex" unicode="&#x2c6;" horiz-adv-x="407" 
d="M145 550h-99l113 157h90l113 -157h-99l-59 60z" />
    <glyph glyph-name="tilde" unicode="&#x2dc;" horiz-adv-x="470" 
d="M162 616q-17 0 -21.5 -13t5.5 -35l-74 -15q-14 22 -14 53q0 41 29 66t69 25q61 0 94 -33t58 -33q9 0 16 6.5t7 15.5q0 13 -7 26l74 15q14 -20 14 -53q0 -41 -28.5 -66t-69.5 -25q-35 0 -65.5 16.5t-51.5 33t-35 16.5z" />
    <glyph glyph-name="uni2000" unicode="&#x2000;" horiz-adv-x="467" 
 />
    <glyph glyph-name="uni2001" unicode="&#x2001;" horiz-adv-x="934" 
 />
    <glyph glyph-name="uni2002" unicode="&#x2002;" horiz-adv-x="467" 
 />
    <glyph glyph-name="uni2003" unicode="&#x2003;" horiz-adv-x="934" 
 />
    <glyph glyph-name="uni2004" unicode="&#x2004;" horiz-adv-x="311" 
 />
    <glyph glyph-name="uni2005" unicode="&#x2005;" horiz-adv-x="233" 
 />
    <glyph glyph-name="uni2006" unicode="&#x2006;" horiz-adv-x="155" 
 />
    <glyph glyph-name="uni2007" unicode="&#x2007;" horiz-adv-x="155" 
 />
    <glyph glyph-name="uni2008" unicode="&#x2008;" horiz-adv-x="116" 
 />
    <glyph glyph-name="uni2009" unicode="&#x2009;" horiz-adv-x="187" 
 />
    <glyph glyph-name="uni200A" unicode="&#x200a;" horiz-adv-x="52" 
 />
    <glyph glyph-name="uni2010" unicode="&#x2010;" horiz-adv-x="468" 
d="M428 260h-388v102h388v-102z" />
    <glyph glyph-name="uni2011" unicode="&#x2011;" horiz-adv-x="468" 
d="M428 260h-388v102h388v-102z" />
    <glyph glyph-name="figuredash" unicode="&#x2012;" horiz-adv-x="468" 
d="M428 260h-388v102h388v-102z" />
    <glyph glyph-name="endash" unicode="&#x2013;" horiz-adv-x="577" 
d="M538 260h-498v102h498v-102z" />
    <glyph glyph-name="emdash" unicode="&#x2014;" horiz-adv-x="848" 
d="M808 260h-768v102h768v-102z" />
    <glyph glyph-name="quoteleft" unicode="&#x2018;" horiz-adv-x="214" 
d="M118 553h53v-134h-134v134l123 154l26 -18z" />
    <glyph glyph-name="quoteright" unicode="&#x2019;" horiz-adv-x="214" 
d="M96 566h-53v134h134v-134l-123 -154l-26 18z" />
    <glyph glyph-name="quotesinglbase" unicode="&#x201a;" horiz-adv-x="214" 
d="M96 0h-53v134h134v-134l-123 -154l-26 18z" />
    <glyph glyph-name="quotedblleft" unicode="&#x201c;" horiz-adv-x="382" 
d="M286 553h53v-134h-134v134l123 154l26 -18zM118 553h53v-134h-134v134l123 154l26 -18z" />
    <glyph glyph-name="quotedblright" unicode="&#x201d;" horiz-adv-x="382" 
d="M96 566h-53v134h134v-134l-123 -154l-26 18zM264 566h-53v134h134v-134l-123 -154l-26 18z" />
    <glyph glyph-name="quotedblbase" unicode="&#x201e;" horiz-adv-x="382" 
d="M96 0h-53v134h134v-134l-123 -154l-26 18zM264 0h-53v134h134v-134l-123 -154l-26 18z" />
    <glyph glyph-name="bullet" unicode="&#x2022;" horiz-adv-x="325" 
d="M77 189q-34 35 -34 86t34 85q35 35 86 35q50 0 85 -35t35 -85t-35 -85t-85 -35q-52 0 -86 34z" />
    <glyph glyph-name="ellipsis" unicode="&#x2026;" 
d="M174 0h-134v134h134v-134zM364 0h-134v134h134v-134zM554 0h-134v134h134v-134z" />
    <glyph glyph-name="uni202F" unicode="&#x202f;" horiz-adv-x="187" 
 />
    <glyph glyph-name="guilsinglleft" unicode="&#x2039;" horiz-adv-x="378" 
d="M40 275l167 214h141l-166 -214l166 -212h-141z" />
    <glyph glyph-name="guilsinglright" unicode="&#x203a;" horiz-adv-x="378" 
d="M196 275l-166 214h141l167 -214l-167 -212h-141z" />
    <glyph glyph-name="uni205F" unicode="&#x205f;" horiz-adv-x="233" 
 />
    <glyph glyph-name="Euro" unicode="&#x20ac;" horiz-adv-x="787" 
d="M626 254l116 -42q-76 -226 -306 -226q-119 0 -201 64t-112 179h-88l42 92h30q-2 28 0 58h-72l42 92h46q33 110 119 177q86 66 197 66q228 0 300 -201l-119 -53q-45 132 -185 132q-63 0 -110 -31.5t-70 -89.5h278l-42 -92h-254q-1 -7 -1 -29q0 -4 0.5 -15.5t0.5 -13.5h296
l-42 -92h-236q24 -57 71.5 -89t109.5 -32q140 0 190 146z" />
    <glyph glyph-name="trademark" unicode="&#x2122;" horiz-adv-x="859" 
d="M151 626h-119v74h320v-74h-119v-326h-82v326zM473 300h-82v400h91l121 -302l121 302h91v-400h-82v224l-90 -224h-80l-90 224v-224z" />
    <glyph glyph-name="uni25FC" unicode="&#x25fc;" horiz-adv-x="494" 
d="M0 0v495h495v-495h-495z" />
    </font>
</defs>
</svg>
