<?xml version="1.0" standalone="no"?>
<!DOCTYPE svg PUBLIC "-//W3C//DTD SVG 1.1//EN" "http://www.w3.org/Graphics/SVG/1.1/DTD/svg11.dtd" >
<svg xmlns="http://www.w3.org/2000/svg" xmlns:xlink="http://www.w3.org/1999/xlink" version="1.1">
<metadata>
Created by FontForge 20190413 at Sat Jun 27 02:16:00 2015
 By Mark Brand
Copyright (c) 2015 by The Entente (AS&#38;EH). All rights reserved.
</metadata>
<defs>
<font id="BasisGrotesquePro-Medium" horiz-adv-x="800" >
  <font-face 
    font-family="BasisGrotesquePro-Medium"
    font-weight="500"
    font-stretch="normal"
    units-per-em="1000"
    panose-1="2 0 6 3 3 0 0 2 0 4"
    ascent="800"
    descent="-200"
    x-height="496"
    cap-height="700"
    bbox="-39 -218 1102 934"
    underline-thickness="50"
    underline-position="-295"
    unicode-range="U+000D-FB04"
  />
<missing-glyph horiz-adv-x="365" 
d="M299 0h-266v666h266v-666zM66 633v-600h200v600h-200z" />
    <glyph glyph-name="uniFB01" unicode="fi" horiz-adv-x="562" 
d="M494 0h-102v414h-194v-414h-102v414h-75v82h75v87q0 78 44.5 122.5t120.5 44.5q31 0 56 -9l-18 -88q-17 5 -34 5q-32 0 -49.5 -20t-17.5 -57v-85h296v-496zM501 575h-116v115h116v-115z" />
    <glyph glyph-name="uniFB02" unicode="fl" horiz-adv-x="563" 
d="M96 414h-75v82h75v87q0 78 44.5 122.5t120.5 44.5q31 0 56 -9l-18 -88q-17 5 -34 5q-32 0 -49.5 -20t-17.5 -57v-85h112v-82h-112v-414h-102v414zM494 0h-102v700h102v-700z" />
    <glyph glyph-name="uniFB03" unicode="ffi" horiz-adv-x="837" 
d="M768 0h-102v414h-194v-414h-102v414h-172v-414h-102v414h-75v82h75v87q0 78 44.5 122.5t120.5 44.5q31 0 56 -9l-18 -88q-17 5 -34 5q-32 0 -49.5 -20t-17.5 -57v-85h172v87q0 78 44.5 122.5t120.5 44.5q29 0 56 -9l-18 -88q-15 5 -34 5q-31 0 -49 -20.5t-18 -56.5v-85
h296v-496zM775 575h-116v115h116v-115z" />
    <glyph glyph-name="uniFB04" unicode="ffl" horiz-adv-x="838" 
d="M370 414h-172v-414h-102v414h-75v82h75v87q0 78 44.5 122.5t120.5 44.5q31 0 56 -9l-18 -88q-17 5 -34 5q-32 0 -49.5 -20t-17.5 -57v-85h172v87q0 78 44.5 122.5t120.5 44.5q29 0 56 -9l-18 -88q-15 5 -34 5q-31 0 -49 -20.5t-18 -56.5v-85h112v-82h-112v-414h-102v414z
M768 0h-102v700h102v-700z" />
    <glyph glyph-name=".notdef" horiz-adv-x="365" 
d="M299 0h-266v666h266v-666zM66 633v-600h200v600h-200z" />
    <glyph glyph-name="glyph1" horiz-adv-x="0" 
 />
    <glyph glyph-name="glyph2" horiz-adv-x="333" 
 />
    <glyph glyph-name="glyph3" horiz-adv-x="0" 
 />
    <glyph glyph-name="glyph3" horiz-adv-x="0" 
 />
    <glyph glyph-name="uni000D" unicode="&#xd;" horiz-adv-x="288" 
 />
    <glyph glyph-name="space" unicode=" " horiz-adv-x="275" 
 />
    <glyph glyph-name="exclam" unicode="!" horiz-adv-x="273" 
d="M96 198l-13 269v233h108v-233l-13 -269h-82zM193 0h-112v119h112v-119z" />
    <glyph glyph-name="quotedbl" unicode="&#x22;" horiz-adv-x="369" 
d="M227 472l-14 161v67h100v-67l-14 -161h-72zM71 472l-14 161v67h100v-67l-14 -161h-72z" />
    <glyph glyph-name="numbersign" unicode="#" horiz-adv-x="662" 
d="M471 700h92l-39 -213h94v-78h-108l-22 -118h110v-78h-124l-39 -213h-92l39 213h-146l-39 -213h-92l39 213h-94v78h108l22 118h-110v78h124l39 213h92l-39 -213h146zM418 409h-146l-22 -118h146z" />
    <glyph glyph-name="dollar" unicode="$" horiz-adv-x="652" 
d="M375 -100h-89v90q-97 12 -159.5 70t-77.5 147l95 49q22 -144 142 -170v236q-204 50 -204 205q0 76 56 126t148 59v88h89v-90q75 -11 128.5 -55t78.5 -115l-86 -50q-34 103 -121 126v-215q113 -22 166 -71t53 -133q0 -80 -60 -140q-58 -59 -159 -69v-88zM486 193
q0 41 -26 67t-85 43v-219q51 8 81 37.5t30 71.5zM184 529q0 -69 102 -105v194q-47 -7 -74.5 -30.5t-27.5 -58.5z" />
    <glyph glyph-name="percent" unicode="%" horiz-adv-x="881" 
d="M220 364q-74 0 -124 50q-48 51 -48 125q0 75 48 124q49 51 124 51t123 -51q49 -49 49 -124t-49 -125q-50 -50 -123 -50zM152 611q-25 -26 -25 -72q0 -45 25 -73t68 -28q42 0 67 28q26 29 26 73t-26 73q-25 28 -67 28t-68 -29zM661 -14q-74 0 -124 50q-48 51 -48 125
q0 75 48 124q49 51 124 51t123 -51q49 -49 49 -124t-49 -125q-50 -50 -123 -50zM594 233q-26 -28 -26 -72q0 -45 25 -73t68 -28q42 0 67 28q26 29 26 73t-26 73q-25 28 -67 28q-41 0 -67 -29zM689 662l-435 -666l-62 42l435 666z" />
    <glyph glyph-name="ampersand" unicode="&#x26;" horiz-adv-x="652" 
d="M522 122l92 -122h-119l-37 49q-76 -63 -179 -63q-97 0 -160 60q-63 62 -63 154q0 127 134 208q-46 70 -46 141q0 72 49 118q50 47 120 47q74 0 118.5 -38.5t44.5 -103.5q0 -106 -152 -183l-3 -2l143 -189q30 56 47 144l82 -46q-24 -102 -71 -174zM289 76q66 0 116 44
l-165 220q-82 -58 -82 -138q0 -56 37 -91t94 -35zM236 551q0 -51 37 -101q64 30 89 56t25 61q0 29 -21 47t-52 18q-32 0 -55 -23t-23 -58z" />
    <glyph glyph-name="quotesingle" unicode="'" horiz-adv-x="214" 
d="M71 472l-14 161v67h100v-67l-14 -161h-72z" />
    <glyph glyph-name="parenleft" unicode="(" horiz-adv-x="354" 
d="M271 -148h-95q-106 190 -106 424t106 424h95q-42 -78 -69 -195q-26 -119 -26 -229q0 -108 26 -229q27 -117 69 -195z" />
    <glyph glyph-name="parenright" unicode=")" horiz-adv-x="354" 
d="M179 -148h-95q43 78 68 195q27 118 27 229q0 112 -27 229q-25 117 -68 195h95q106 -191 106 -424t-106 -424z" />
    <glyph glyph-name="asterisk" unicode="*" horiz-adv-x="434" 
d="M170 700h94l-19 -116l91 74l47 -81l-110 -42l110 -42l-47 -81l-91 75l19 -117h-94l19 117l-91 -75l-47 81l110 42l-110 42l47 81l91 -74z" />
    <glyph glyph-name="plus" unicode="+" horiz-adv-x="534" 
d="M226 324h-182v82h182v182h82v-182h183v-82h-183v-183h-82v183z" />
    <glyph glyph-name="comma" unicode="," horiz-adv-x="201" 
d="M83 0h-39v116h114v-116l-86 -144l-26 11z" />
    <glyph glyph-name="hyphen" unicode="-" horiz-adv-x="462" 
d="M418 270h-374v82h374v-82z" />
    <glyph glyph-name="period" unicode="." horiz-adv-x="201" 
d="M158 0h-114v116h114v-116z" />
    <glyph glyph-name="slash" unicode="/" horiz-adv-x="518" 
d="M112 -30h-106l400 760h106z" />
    <glyph glyph-name="zero" unicode="0" horiz-adv-x="720" 
d="M583 613q87 -100 87 -263q0 -164 -87 -264q-85 -100 -223 -100q-136 0 -223 100t-87 264q0 162 87 263t223 101q137 0 223 -101zM214 155q57 -71 146 -71q90 0 146 71q56 73 56 195q0 123 -56 194q-55 72 -146 72q-89 0 -146 -72q-56 -71 -56 -194q0 -122 56 -195z" />
    <glyph glyph-name="one" unicode="1" horiz-adv-x="381" 
d="M51 516v96q58 0 93.5 21t59.5 67h100v-700h-108v563q-50 -47 -145 -47z" />
    <glyph glyph-name="two" unicode="2" horiz-adv-x="586" 
d="M52 0v77l269 262q49 49 69 86t20 79q0 53 -34 84.5t-91 31.5q-55 0 -90.5 -33t-35.5 -87q0 -23 8 -45l-100 -18q-12 35 -12 73q0 81 65 143q64 61 166 61q106 0 167 -55t61 -141q0 -67 -27 -122q-26 -53 -95 -122l-178 -176h302v-98h-464z" />
    <glyph glyph-name="three" unicode="3" horiz-adv-x="597" 
d="M66 253l101 -24q-4 -16 -4 -32q0 -51 39 -84t98 -33q64 0 101 33.5t37 93.5q0 64 -49.5 95.5t-138.5 31.5v82q78 0 118 30.5t40 83.5q0 43 -31.5 68.5t-83.5 25.5q-49 0 -81.5 -27.5t-32.5 -71.5q0 -14 5 -29l-98 -19q-9 25 -9 51q0 78 60 132t157 54q100 0 159 -47.5
t59 -123.5q0 -52 -30 -96.5t-78 -61.5q65 -19 103.5 -65t38.5 -111q0 -102 -70 -163q-69 -60 -176 -60q-114 0 -179 61q-66 61 -66 147q0 32 11 59z" />
    <glyph glyph-name="four" unicode="4" horiz-adv-x="603" 
d="M388 128h-343v98l343 474h108v-474h75v-98h-75v-128h-108v128zM388 226v319l-230 -319h230z" />
    <glyph glyph-name="five" unicode="5" horiz-adv-x="604" 
d="M143 298l-84 23l33 379h418v-98h-337l-19 -197q30 34 74 53.5t89 19.5q112 0 175 -65t63 -176q0 -108 -72 -180q-73 -71 -187 -71q-108 0 -175 56q-65 57 -65 138q0 25 9 53l99 -23q-4 -15 -4 -31q0 -48 37 -73.5t99 -25.5q68 0 109.5 42.5t41.5 114.5t-40.5 113.5
t-107.5 41.5q-47 0 -89 -26t-67 -68z" />
    <glyph glyph-name="six" unicode="6" horiz-adv-x="613" 
d="M530 490l-100 20q7 15 7 36q0 36 -29.5 58t-78.5 22q-75 0 -121 -73q-45 -72 -53 -184q70 89 180 89q103 0 167 -66q66 -66 66 -168q0 -101 -72 -170q-73 -68 -182 -68q-121 0 -193 85q-71 86 -71 238q0 131 41 230q33 83 95.5 129t142.5 46q96 0 153 -46.5t57 -124.5
q0 -27 -9 -53zM418 326q-43 40 -104 40t-104 -40q-43 -39 -43 -105q0 -65 43 -104q44 -39 104 -39t104 39t44 104q0 66 -44 105z" />
    <glyph glyph-name="seven" unicode="7" horiz-adv-x="543" 
d="M502 700v-92l-272 -608h-106l269 602h-353v98h462z" />
    <glyph glyph-name="eight" unicode="8" horiz-adv-x="586" 
d="M51 194q0 62 31 109t86 72q-45 24 -70.5 65.5t-25.5 92.5q0 80 62 130q63 51 159 51q97 0 158 -51q63 -49 63 -130q0 -51 -25.5 -92.5t-70.5 -65.5q55 -25 86 -72t31 -109q0 -92 -68 -151q-67 -57 -174 -57t-175 57q-67 58 -67 151zM431 201q0 54 -40 90.5t-98 36.5
t-98 -36.5t-40 -90.5q0 -55 39 -91q40 -36 99 -36t98 36q40 36 40 91zM174 524q0 -48 34 -79t85 -31t85 31t34 79t-35 79t-84 31t-84 -31t-35 -79z" />
    <glyph glyph-name="nine" unicode="9" horiz-adv-x="618" 
d="M87 208l102 -20q-7 -18 -7 -36q0 -36 30.5 -57t83.5 -21q78 0 122.5 68t45.5 188q-24 -39 -70.5 -63.5t-99.5 -24.5q-104 0 -172 65q-67 66 -67 168q0 100 70 169q70 70 181 70q124 0 193 -82.5t69 -234.5q0 -144 -40 -246q-30 -80 -91 -122.5t-145 -42.5q-96 0 -155 48
t-59 121q0 29 9 53zM306 334q60 0 103 39q44 39 44 104q0 66 -44 105q-43 40 -103 40t-103 -40q-42 -39 -42 -105q0 -65 42 -104q43 -39 103 -39z" />
    <glyph glyph-name="colon" unicode=":" horiz-adv-x="201" 
d="M158 364h-114v116h114v-116zM158 0h-114v116h114v-116z" />
    <glyph glyph-name="semicolon" unicode=";" horiz-adv-x="201" 
d="M158 364h-114v116h114v-116zM83 0h-39v116h114v-116l-86 -144l-26 11z" />
    <glyph glyph-name="less" unicode="&#x3c;" horiz-adv-x="521" 
d="M467 59l-423 208v86l423 208v-102l-315 -149l315 -149v-102z" />
    <glyph glyph-name="equal" unicode="=" horiz-adv-x="540" 
d="M497 209h-453v82h453v-82zM497 404h-453v82h453v-82z" />
    <glyph glyph-name="greater" unicode="&#x3e;" horiz-adv-x="521" 
d="M54 561l423 -208v-86l-423 -208v102l315 149l-315 149v102z" />
    <glyph glyph-name="question" unicode="?" horiz-adv-x="543" 
d="M315 202h-106v17q0 42 20.5 77.5t68.5 74.5q53 44 73 76t20 74q0 44 -34 71.5t-87 27.5t-87.5 -29.5t-34.5 -80.5q0 -19 5 -42l-95 -19q-12 29 -12 69q0 78 62 137q64 59 161 59q104 0 163 -52q61 -52 61 -135q0 -61 -27 -107q-28 -47 -100 -107q-51 -44 -51 -111zM318 0
h-112v119h112v-119z" />
    <glyph glyph-name="at" unicode="@" horiz-adv-x="953" 
d="M647 -21l43 -69q-53 -34 -107 -47q-53 -15 -130 -15q-78 0 -147 25q-112 35 -184.5 137.5t-71.5 258.5q0 188 127 316q127 129 322 129q80 0 151 -23t127 -67.5t89 -117.5t33 -165q0 -134 -72 -224q-71 -90 -173 -90q-41 0 -67 21.5t-26 56.5q0 13 1 16l1 6
q-22 -46 -63.5 -73t-91.5 -27q-78 0 -127 58t-49 153q0 72 23 131.5t60 95.5t79.5 55.5t85.5 19.5q95 0 125 -71l9 55h84l-55 -369q-1 -5 -1 -18q0 -35 31 -35q52 0 94 63q43 62 43 173q0 135 -82 216q-82 82 -238 82q-145 0 -248 -106q-103 -104 -103 -264q0 -162 93 -251
q94 -89 229 -89q109 0 186 53zM420 103q68 0 117 70t49 171q0 58 -24.5 89t-69.5 31q-66 0 -118 -64q-52 -62 -52 -163q0 -66 26.5 -100t71.5 -34z" />
    <glyph glyph-name="A" unicode="A" horiz-adv-x="680" 
d="M120 0h-114l280 700h108l280 -700h-114l-75 195h-290zM364 510l-24 67l-24 -67l-85 -221h218z" />
    <glyph glyph-name="B" unicode="B" horiz-adv-x="652" 
d="M357 0h-276v700h272q102 0 162 -46t60 -124q0 -52 -29.5 -91t-78.5 -60q137 -53 137 -171q0 -95 -72 -152q-71 -56 -175 -56zM346 324h-157v-230h157q71 0 109.5 29t38.5 86t-38.5 86t-109.5 29zM345 606h-156v-188h156q126 0 126 94t-126 94z" />
    <glyph glyph-name="C" unicode="C" horiz-adv-x="757" 
d="M621 229l83 -59q-60 -96 -128 -140q-70 -44 -178 -44q-150 0 -249 102q-98 103 -98 262q0 158 102 261t250 103q103 0 182.5 -49t116.5 -132l-86 -62q-75 145 -215 145q-100 0 -170 -76t-70 -191q0 -113 68 -190q67 -75 171 -75q145 0 221 145z" />
    <glyph glyph-name="D" unicode="D" horiz-adv-x="702" 
d="M283 0h-202v700h202q164 0 267 -92q102 -92 102 -258q0 -168 -102 -259q-101 -91 -267 -91zM189 98h96q120 0 188.5 65t68.5 187t-68.5 187t-188.5 65h-96v-504z" />
    <glyph glyph-name="E" unicode="E" horiz-adv-x="605" 
d="M544 0h-463v700h460v-96h-352v-194h324v-96h-324v-218h355v-96z" />
    <glyph glyph-name="F" unicode="F" horiz-adv-x="607" 
d="M189 0h-108v700h472v-96h-364v-214h334v-96h-334v-294z" />
    <glyph glyph-name="G" unicode="G" horiz-adv-x="772" 
d="M708 0h-72l-26 108q-74 -122 -218 -122q-149 0 -245 102q-96 104 -96 262q0 157 103 260q104 104 250 104q99 0 179 -46t119 -125l-82 -57q-74 132 -218 132q-100 0 -171 -75q-70 -73 -70 -194q0 -119 64 -192t169 -73q88 0 141 50.5t65 139.5h-236v89h344v-363z" />
    <glyph glyph-name="H" unicode="H" horiz-adv-x="703" 
d="M189 0h-108v700h108v-294h326v294h108v-700h-108v308h-326v-308z" />
    <glyph glyph-name="I" unicode="I" horiz-adv-x="270" 
d="M189 0h-108v700h108v-700z" />
    <glyph glyph-name="J" unicode="J" horiz-adv-x="545" 
d="M376 700h108v-496q0 -98 -60 -158q-59 -60 -158 -60q-96 0 -158 53q-61 52 -61 168l108 -11q4 -112 114 -112q49 0 78 32t29 88v496z" />
    <glyph glyph-name="K" unicode="K" horiz-adv-x="640" 
d="M189 0h-108v700h108v-294l48 53l226 241h138l-246 -260l264 -440h-126l-216 360l-88 -92v-268z" />
    <glyph glyph-name="L" unicode="L" horiz-adv-x="586" 
d="M540 0h-459v700h108v-604h351v-96z" />
    <glyph glyph-name="M" unicode="M" horiz-adv-x="865" 
d="M185 0h-104v700h115l237 -593l237 593h115v-700h-104v485l-36 -99l-160 -386h-104l-160 386q-31 82 -36 99v-485z" />
    <glyph glyph-name="N" unicode="N" horiz-adv-x="720" 
d="M185 0h-104v700h110l314 -488q23 -37 30 -53v541h104v-700h-110l-314 488q-25 37 -30 53v-541z" />
    <glyph glyph-name="O" unicode="O" 
d="M649 610q100 -101 100 -261q0 -158 -100 -261q-99 -102 -249 -102q-148 0 -249 102q-100 103 -100 261q0 159 100 262t249 103q150 0 249 -104zM229 157q67 -73 171 -73t171 73q68 74 68 192q0 119 -68 193t-171 74t-171 -74t-68 -193q0 -118 68 -192z" />
    <glyph glyph-name="P" unicode="P" horiz-adv-x="688" 
d="M189 0h-108v700h306q115 0 183 -60q69 -58 69 -163q0 -104 -67.5 -163.5t-184.5 -59.5h-198v-254zM383 604h-194v-254h194q71 0 109.5 33t38.5 93t-38.5 94t-109.5 34z" />
    <glyph glyph-name="Q" unicode="Q" 
d="M749 350q0 -119 -59 -210q-58 -88 -157 -129q26 -43 83 -97l-79 -69q-64 64 -110 142q-11 -1 -27 -1q-148 0 -249 102q-100 103 -100 261q0 159 100 262t249 103q150 0 249 -103q100 -103 100 -261zM229 157q67 -73 171 -73t171 73q68 74 68 192q0 119 -68 193t-171 74
t-171 -74t-68 -193q0 -118 68 -192z" />
    <glyph glyph-name="R" unicode="R" horiz-adv-x="655" 
d="M615 0h-125l-163 295h-138v-295h-108v700h289q109 0 173 -55t64 -143q0 -73 -44 -125.5t-122 -72.5zM363 606h-174v-217h174q136 0 136 108q0 109 -136 109z" />
    <glyph glyph-name="S" unicode="S" horiz-adv-x="650" 
d="M183 529q0 -47 43.5 -75.5t139.5 -47.5q116 -22 171 -72.5t55 -136.5q0 -88 -71 -150q-70 -61 -185 -61q-118 0 -193.5 60t-93.5 161l95 49q30 -176 191 -176q66 0 107.5 32.5t41.5 80.5q0 52 -41 81t-137 47q-225 45 -225 206q0 83 67 135t173 52q95 0 162.5 -45.5
t96.5 -128.5l-86 -50q-43 130 -174 130q-59 0 -98 -24.5t-39 -66.5z" />
    <glyph glyph-name="T" unicode="T" horiz-adv-x="575" 
d="M234 602h-216v98h540v-98h-216v-602h-108v602z" />
    <glyph glyph-name="U" unicode="U" horiz-adv-x="686" 
d="M508 700h108v-451q0 -124 -76 -194q-75 -69 -197 -69q-121 0 -198 69q-75 71 -75 194v451h108v-448q0 -75 45 -121.5t120 -46.5t120 46.5t45 121.5v448z" />
    <glyph glyph-name="V" unicode="V" horiz-adv-x="634" 
d="M373 0h-112l-259 700h114l175 -489q10 -32 26 -89l26 89l175 489h114z" />
    <glyph glyph-name="W" unicode="W" horiz-adv-x="915" 
d="M798 700h113l-193 -700h-117l-143 552l-143 -552h-117l-193 700h113l124 -485q14 -56 17 -73l17 74l125 484h114l125 -484q14 -60 17 -74l17 73z" />
    <glyph glyph-name="X" unicode="X" horiz-adv-x="597" 
d="M37 700h119l142 -239l148 239h115l-201 -319l233 -381h-118l-177 290l-175 -290h-120l235 376z" />
    <glyph glyph-name="Y" unicode="Y" horiz-adv-x="577" 
d="M343 0h-108v281l-231 419h119l144 -273q12 -19 22 -47l22 47l144 273h119l-231 -419v-281z" />
    <glyph glyph-name="Z" unicode="Z" horiz-adv-x="606" 
d="M425 602h-372v98h495v-98l-383 -504h401v-98h-527v96z" />
    <glyph glyph-name="bracketleft" unicode="[" horiz-adv-x="336" 
d="M286 -150h-205v850h205v-94h-103v-662h103v-94z" />
    <glyph glyph-name="backslash" unicode="\" horiz-adv-x="518" 
d="M6 730h106l400 -760h-106z" />
    <glyph glyph-name="bracketright" unicode="]" horiz-adv-x="336" 
d="M50 700h205v-850h-205v94h103v662h-103v94z" />
    <glyph glyph-name="asciicircum" unicode="^" horiz-adv-x="478" 
d="M20 438l170 262h98l170 -262h-99l-120 183l-120 -183h-99z" />
    <glyph glyph-name="underscore" unicode="_" horiz-adv-x="475" 
d="M467 -89h-459v82h459v-82z" />
    <glyph glyph-name="grave" unicode="`" horiz-adv-x="312" 
d="M58 703h131l66 -148h-85z" />
    <glyph glyph-name="a" unicode="a" horiz-adv-x="555" 
d="M512 0h-102q-27 31 -28 87q-50 -101 -165 -101q-75 0 -122 42.5t-47 110.5q0 67 47.5 109t127.5 54l157 25v21q0 86 -104 86q-49 0 -76 -18t-27 -47q0 -5 2 -15l-91 -31q-8 21 -8 40q0 61 55 104t145 43q101 0 153.5 -43t52.5 -125v-218q0 -74 30 -124zM233 71
q65 0 106 47t41 120v14l-134 -23q-96 -17 -96 -84q0 -34 23 -54t60 -20z" />
    <glyph glyph-name="b" unicode="b" horiz-adv-x="615" 
d="M172 0h-102v700h102v-279q27 41 73 65t100 24q99 0 165 -73q67 -71 67 -189q0 -116 -68 -190q-68 -72 -169 -72q-55 0 -99.5 24t-68.5 63v-73zM210 127q45 -47 109 -47q65 0 109 47q45 48 45 121q0 74 -45 120q-43 48 -109 48q-64 0 -109 -48q-45 -46 -45 -120
q0 -73 45 -121z" />
    <glyph glyph-name="c" unicode="c" horiz-adv-x="559" 
d="M445 180l79 -51q-72 -143 -228 -143q-110 0 -183 73q-74 74 -74 189q0 114 75 188q76 74 182 74q80 0 138.5 -35.5t85.5 -99.5l-81 -54q-47 95 -142 95q-67 0 -110.5 -46t-43.5 -122q0 -77 42.5 -122.5t111.5 -45.5q52 0 86 24t62 76z" />
    <glyph glyph-name="d" unicode="d" horiz-adv-x="615" 
d="M444 700h102v-700h-102v80q-54 -94 -164 -94q-103 0 -172 72q-69 74 -69 190q0 114 71 188q72 74 168 74q118 0 166 -89v279zM187 127q45 -47 109 -47q65 0 110 47q45 48 45 121q0 74 -45 120q-45 48 -110 48q-64 0 -109 -48q-44 -47 -44 -120q0 -72 44 -121z" />
    <glyph glyph-name="e" unicode="e" horiz-adv-x="574" 
d="M534 262v-36h-393q3 -67 44.5 -109t106.5 -42q55 0 89 25t59 78l79 -47q-70 -145 -230 -145q-103 0 -177 74q-73 73 -73 188q0 114 74 188t181 74t173 -70q67 -68 67 -178zM292 428q-54 0 -96 -35t-55 -89h296q-6 56 -47 90t-98 34z" />
    <glyph glyph-name="f" unicode="f" horiz-adv-x="329" 
d="M96 414h-75v82h75v87q0 78 44.5 122.5t120.5 44.5q31 0 56 -9l-18 -88q-17 5 -34 5q-32 0 -49.5 -20t-17.5 -57v-85h112v-82h-112v-414h-102v414z" />
    <glyph glyph-name="g" unicode="g" horiz-adv-x="593" 
d="M74 -6l99 -28q-8 -18 -8 -36q0 -29 33.5 -46.5t90.5 -17.5q140 0 140 150v78q-22 -39 -61.5 -62.5t-89.5 -23.5q-98 0 -169 69q-70 70 -70 182t69 181q69 70 167 70q49 0 89.5 -22t64.5 -60v68h102v-466q0 -117 -64 -182.5t-178 -65.5q-107 0 -167.5 42t-60.5 114
q0 31 13 56zM393 376q-40 43 -105 43q-63 0 -105 -43q-42 -44 -42 -117t42 -117q42 -43 105 -43q65 0 105 43q42 44 42 117t-42 117z" />
    <glyph glyph-name="h" unicode="h" horiz-adv-x="590" 
d="M520 335v-335h-102v304q0 52 -29.5 82t-80.5 30q-57 0 -97 -43q-39 -43 -39 -111v-262h-102v700h102v-287q28 45 73.5 71t98.5 26q77 0 126 -46q50 -47 50 -129z" />
    <glyph glyph-name="i" unicode="i" horiz-adv-x="239" 
d="M171 0h-102v496h102v-496zM178 575h-116v115h116v-115z" />
    <glyph glyph-name="j" unicode="j" horiz-adv-x="239" 
d="M-39 -202l13 93q19 -8 42 -8q53 0 53 71v542h102v-541q0 -166 -149 -166q-29 0 -61 9zM178 575h-116v115h116v-115z" />
    <glyph glyph-name="k" unicode="k" horiz-adv-x="518" 
d="M70 700h102v-371l169 167h125l-175 -172l205 -324h-119l-159 252l-46 -46v-206h-102v700z" />
    <glyph glyph-name="l" unicode="l" horiz-adv-x="241" 
d="M172 0h-102v700h102v-700z" />
    <glyph glyph-name="m" unicode="m" horiz-adv-x="835" 
d="M765 363v-363h-102v328q0 92 -86 92q-50 0 -79.5 -37.5t-29.5 -109.5v-273h-102v325q0 43 -22 69t-60 26q-50 0 -81 -39t-31 -108v-273h-102v496h102v-71q22 39 61.5 62t84.5 23q103 0 136 -88q52 88 158 88q71 0 112 -40t41 -107z" />
    <glyph glyph-name="n" unicode="n" horiz-adv-x="584" 
d="M514 337v-337h-102v307q0 51 -29 80t-81 29q-56 0 -93 -43t-37 -111v-262h-102v496h102v-83q27 45 72 71t97 26q76 0 124.5 -46.5t48.5 -126.5z" />
    <glyph glyph-name="o" unicode="o" horiz-adv-x="607" 
d="M304 -14q-107 0 -186 70t-79 192t79 192t186 70q103 3 184 -70t81 -192t-81 -192t-184 -70zM189 127q47 -47 114 -47q68 0 115 47t47 121t-47 121t-115 47q-67 0 -114 -47q-46 -46 -46 -121t46 -121z" />
    <glyph glyph-name="p" unicode="p" horiz-adv-x="615" 
d="M172 -204h-102v700h102v-76q25 39 73 64.5t103 25.5q96 0 162 -72q67 -70 67 -190q0 -117 -68 -190q-68 -72 -170 -72q-53 0 -98 22t-69 60v-272zM428 368q-43 48 -109 48q-64 0 -109 -48q-45 -46 -45 -120q0 -73 45 -121q45 -47 109 -47q65 0 109 47q45 48 45 121
q0 74 -45 120z" />
    <glyph glyph-name="q" unicode="q" horiz-adv-x="615" 
d="M444 496h102v-700h-102v279q-50 -89 -165 -89q-100 0 -170 73t-70 189q0 117 71 190q70 72 170 72q56 0 101 -25t63 -65v76zM406 368q-45 48 -110 48q-64 0 -109 -48q-44 -47 -44 -120q0 -72 44 -121q45 -47 109 -47q65 0 110 47q45 48 45 121q0 74 -45 120z" />
    <glyph glyph-name="r" unicode="r" horiz-adv-x="366" 
d="M352 505l-17 -97q-19 6 -39 6q-54 0 -89 -43.5t-35 -109.5v-261h-102v496h102v-84q47 98 143 98q12 0 37 -5z" />
    <glyph glyph-name="s" unicode="s" horiz-adv-x="495" 
d="M164 376q0 -29 30 -48t94 -31q87 -18 127 -53t40 -97q0 -69 -52 -115q-50 -46 -140 -46q-81 0 -137.5 40t-81.5 107l83 52q42 -112 137 -112q40 0 67 19.5t27 51.5q0 30 -27 47.5t-90 29.5q-169 34 -169 150q0 64 52 101q53 38 125 38q76 0 124 -30t75 -93l-75 -44
q-18 43 -50 66t-72 23q-37 0 -62 -16t-25 -40z" />
    <glyph glyph-name="t" unicode="t" horiz-adv-x="355" 
d="M107 414h-80v82h80v134h102v-134h111v-82h-111v-263q0 -73 68 -73q17 0 37 6l9 -86q-31 -12 -74 -12q-142 0 -142 147v281z" />
    <glyph glyph-name="u" unicode="u" horiz-adv-x="584" 
d="M70 177v319h102v-298q0 -57 28.5 -87.5t81.5 -30.5q57 0 93.5 41.5t36.5 106.5v268h102v-496h-102v80q-52 -94 -161 -94q-81 0 -131 50t-50 141z" />
    <glyph glyph-name="v" unicode="v" horiz-adv-x="514" 
d="M396 496h110l-200 -496h-98l-200 496h110l139 -369z" />
    <glyph glyph-name="w" unicode="w" horiz-adv-x="699" 
d="M299 496h102l100 -364l90 364h102l-139 -496h-104l-100 368l-100 -368h-104l-139 496h102l90 -364z" />
    <glyph glyph-name="x" unicode="x" horiz-adv-x="466" 
d="M20 496h117l95 -151l96 151h120l-156 -229l173 -267h-119l-114 184l-115 -184h-118l179 264z" />
    <glyph glyph-name="y" unicode="y" horiz-adv-x="520" 
d="M63 -200l16 93q38 -16 64 -8.5t41 51.5l23 61l-202 499h117l140 -358l139 358h113l-240 -596q-44 -111 -139 -111q-37 0 -72 11z" />
    <glyph glyph-name="z" unicode="z" horiz-adv-x="490" 
d="M435 410l-279 -324h295v-86h-411v86l279 324h-267v86h383v-86z" />
    <glyph glyph-name="braceleft" unicode="{" horiz-adv-x="382" 
d="M53 232v86q39 0 57 19t18 67v112q0 97 40 140.5t125 43.5h39v-94h-28q-74 0 -74 -84v-129q0 -51 -15 -76.5t-52 -41.5q37 -15 52 -40.5t15 -77.5v-129q0 -84 74 -84h28v-94h-39q-85 0 -125 43.5t-40 140.5v112q0 48 -18 67t-57 19z" />
    <glyph glyph-name="bar" unicode="|" horiz-adv-x="262" 
d="M181 -110h-100v850h100v-850z" />
    <glyph glyph-name="braceright" unicode="}" horiz-adv-x="382" 
d="M329 318v-86q-39 0 -57 -19t-18 -67v-112q0 -97 -40 -140.5t-125 -43.5h-39v94h28q74 0 74 84v129q0 52 15 77.5t52 40.5q-37 16 -52 41t-15 77v129q0 84 -74 84h-28v94h39q85 0 125 -43.5t40 -140.5v-112q0 -48 18 -67t57 -19z" />
    <glyph glyph-name="asciitilde" unicode="~" horiz-adv-x="452" 
d="M155 324q-12 0 -20 -7t-8 -18t7 -24l-77 -15q-13 17 -13 47q0 44 29 70.5t71 26.5q35 0 66 -16t52.5 -32t35.5 -16q12 0 20 7t8 18t-7 24l77 15q13 -17 13 -47q0 -43 -29 -70t-71 -27q-32 0 -57 10t-38 22t-28.5 22t-30.5 10z" />
    <glyph glyph-name="uni00A0" unicode="&#xa0;" horiz-adv-x="275" 
 />
    <glyph glyph-name="exclamdown" unicode="&#xa1;" horiz-adv-x="273" 
d="M178 298l13 -269v-233h-108v233l13 269h82zM81 496h112v-119h-112v119z" />
    <glyph glyph-name="cent" unicode="&#xa2;" horiz-adv-x="569" 
d="M452 180l79 -51q-60 -121 -185 -139v-100h-86v99q-93 13 -154 85q-60 72 -60 174t61 172q62 71 153 86v114h86v-113q64 -9 111.5 -43.5t69.5 -88.5l-81 -54q-38 74 -100 90v-327q62 16 106 96zM150 248q0 -62 29.5 -105.5t80.5 -57.5v325q-50 -15 -80 -57.5t-30 -104.5z
" />
    <glyph glyph-name="sterling" unicode="&#xa3;" horiz-adv-x="570" 
d="M120 308h-89v80h69q-18 60 -18 111q0 97 65 156q67 59 164 59q99 0 158 -51q60 -49 60 -126q0 -33 -15 -69l-97 16q10 24 10 48q0 40 -32.5 66t-85.5 26q-57 0 -90 -33.5t-33 -91.5q0 -43 18 -111h191v-80h-173q6 -24 6 -61q0 -81 -48 -155h340v-92h-453v76q33 43 46 80
t13 87q0 37 -6 65z" />
    <glyph glyph-name="currency" unicode="&#xa4;" horiz-adv-x="644" 
d="M509 226l71 -72l-62 -62l-72 72q-56 -37 -123.5 -37t-124.5 37l-72 -72l-62 62l71 72q-35 52 -35 123q0 72 35 125l-71 72l62 62l72 -72q57 37 124.5 37t123.5 -37l72 72l62 -62l-71 -72q35 -53 35 -125q0 -71 -35 -123zM226 248q38 -39 96 -39q60 0 97 39q37 40 37 101
t-38 102q-37 40 -96 40t-96 -40q-38 -41 -38 -102q0 -60 38 -101z" />
    <glyph glyph-name="yen" unicode="&#xa5;" horiz-adv-x="579" 
d="M236 281h-147v82h103l-177 337h119l134 -273q11 -21 22 -50l22 50l134 273h119l-178 -337h104v-82h-147v-70h147v-82h-147v-129h-108v129h-147v82h147v70z" />
    <glyph glyph-name="brokenbar" unicode="&#xa6;" horiz-adv-x="262" 
d="M181 740v-356h-100v356h100zM81 -110v356h100v-356h-100z" />
    <glyph glyph-name="section" unicode="&#xa7;" horiz-adv-x="522" 
d="M464 287q0 -59 -51 -102q47 -45 47 -111q0 -78 -56 -122q-56 -45 -138 -45q-76 0 -131 36t-83 100l74 53q45 -107 142 -107q42 0 70.5 22t28.5 57q0 39 -34 65.5t-111 43.5q-163 34 -163 157q0 57 50 101q-46 43 -46 112q0 78 56 122q55 45 138 45q76 0 131 -36t83 -100
l-74 -53q-44 107 -142 107q-42 0 -70.5 -22t-28.5 -57q0 -39 34 -65.5t111 -43.5q163 -34 163 -157zM246 370q-42 9 -73 24q-25 -22 -25 -49q0 -33 30 -55t99 -39q27 -7 73 -24q25 22 25 49q0 34 -30 56t-99 38z" />
    <glyph glyph-name="dieresis" unicode="&#xa8;" horiz-adv-x="401" 
d="M338 582h-105v108h105v-108zM169 582h-105v108h105v-108z" />
    <glyph glyph-name="copyright" unicode="&#xa9;" horiz-adv-x="838" 
d="M161 92q-106 106 -106 257t107 258t257 107t257 -107t107 -258q0 -150 -107 -257q-106 -106 -257 -106t-258 106zM213 556q-84 -86 -84 -206q0 -122 84 -207q85 -85 206 -85t205 85q85 85 85 207q0 121 -85 206q-84 86 -205 86q-120 0 -206 -86zM537 297l61 -40
q-56 -111 -177 -111q-85 0 -144 57q-57 57 -57 147q0 88 58 146t143 58q130 0 174 -105l-63 -42q-38 74 -111 74q-52 0 -86 -36.5t-34 -94.5q0 -60 33 -95.5t87 -35.5q74 0 116 78z" />
    <glyph glyph-name="ordfeminine" unicode="&#xaa;" horiz-adv-x="392" 
d="M372 300h-76q-17 20 -19 59q-35 -66 -114 -66q-50 0 -83.5 30.5t-33.5 76.5q0 47 34.5 76.5t93.5 38.5l102 16v10q0 61 -71 61q-32 0 -51 -12t-19 -31q0 -7 1 -10l-68 -24q-5 12 -5 27q0 43 40.5 74t102.5 31q145 0 145 -120v-149q0 -55 21 -88zM178 357q44 0 71 30.5
t27 78.5v10l-92 -15q-63 -11 -63 -56q0 -22 15.5 -35t41.5 -13z" />
    <glyph glyph-name="guillemotleft" unicode="&#xab;" horiz-adv-x="552" 
d="M239 275l163 206h117l-159 -206l159 -206h-117zM44 275l163 206h117l-159 -206l159 -206h-117z" />
    <glyph glyph-name="logicalnot" unicode="&#xac;" horiz-adv-x="542" 
d="M472 406v-219h-98v137h-330v82h428z" />
    <glyph glyph-name="uni00AD" unicode="&#xad;" horiz-adv-x="462" 
d="M418 270h-374v82h374v-82z" />
    <glyph glyph-name="registered" unicode="&#xae;" horiz-adv-x="838" 
d="M161 92q-106 106 -106 257t107 258t257 107t257 -107t107 -258q0 -150 -107 -257q-106 -106 -257 -106t-258 106zM574 151h-82l-95 164h-46v-164h-74v398h166q60 0 96 -32t36 -83q0 -42 -26 -73t-71 -44zM433 486h-82v-110h82q44 -3 62 26t0 58t-62 26zM213 556
q-84 -86 -84 -206q0 -122 84 -207q85 -85 206 -85t205 85q85 85 85 207q0 121 -85 206q-84 86 -205 86q-120 0 -206 -86z" />
    <glyph glyph-name="overscore" unicode="&#xaf;" horiz-adv-x="321" 
d="M278 594h-234v82h234v-82z" />
    <glyph glyph-name="degree" unicode="&#xb0;" horiz-adv-x="357" 
d="M80 479q-39 41 -39 98q0 58 39 97q40 40 98 40q59 0 99 -40q40 -39 40 -97q0 -57 -40 -97t-99 -40q-57 0 -98 39zM130 626q-18 -19 -18 -49t18 -49t48.5 -19t48.5 19q19 19 19 49t-19 49q-18 19 -48.5 19t-48.5 -19z" />
    <glyph glyph-name="plusminus" unicode="&#xb1;" horiz-adv-x="534" 
d="M226 354h-182v82h182v182h82v-182h183v-82h-183v-183h-82v183zM491 0h-447v82h447v-82z" />
    <glyph glyph-name="uni00B2" unicode="&#xb2;" horiz-adv-x="340" 
d="M58 350v47l130 127q40 37 40 77q0 21 -13.5 33.5t-37.5 12.5q-23 0 -37.5 -13.5t-14.5 -36.5q0 -15 4 -23l-66 -9q-6 17 -6 37q0 42 33 73q35 32 87 32q56 0 89 -28.5t33 -74.5q0 -33 -14 -59.5t-50 -62.5l-72 -71h139v-61h-244z" />
    <glyph glyph-name="uni00B3" unicode="&#xb3;" horiz-adv-x="347" 
d="M54 480l68 -14q-3 -9 -3 -19q0 -20 15.5 -31.5t42.5 -11.5t42.5 14t15.5 38q0 54 -88 54v53q73 0 73 48q3 25 -23 35t-51.5 -0.5t-23.5 -36.5q0 -2 2 -16l-61 -9q-5 18 -5 31q0 38 32 65t82 27q54 0 85.5 -23.5t31.5 -62.5q0 -49 -48 -77q30 -9 47.5 -33t17.5 -57
q0 -51 -36.5 -81t-94.5 -30q-56 0 -91.5 29.5t-35.5 73.5q0 20 6 34z" />
    <glyph glyph-name="acute" unicode="&#xb4;" horiz-adv-x="312" 
d="M143 555h-85l66 148h131z" />
    <glyph glyph-name="mu" unicode="&#xb5;" horiz-adv-x="584" 
d="M172 -204h-102v700h102v-298q0 -57 28.5 -87.5t81.5 -30.5q57 0 93.5 41.5t36.5 106.5v268h102v-496h-102v80q-24 -44 -66 -69t-95 -25q-47 0 -82 19q3 -33 3 -71v-138z" />
    <glyph glyph-name="paragraph" unicode="&#xb6;" horiz-adv-x="638" 
d="M448 612h-74v-732h-98v430h-19q-94 0 -156 53q-60 53 -60 142t60 142q62 53 156 53h347v-88h-58v-732h-98v732z" />
    <glyph glyph-name="middot" unicode="&#xb7;" horiz-adv-x="201" 
d="M158 300h-114v116h114v-116z" />
    <glyph glyph-name="cedilla" unicode="&#xb8;" horiz-adv-x="300" 
d="M100 -108l-34 31l33 93h62l-38 -69q17 9 41 9q33 0 55 -21.5t22 -55.5q0 -38 -26.5 -60.5t-66.5 -22.5q-34 0 -58.5 16.5t-30.5 43.5l57 15q8 -24 33 -24q13 0 21 8.5t8 22.5q0 15 -9 23.5t-24 8.5q-25 0 -45 -18z" />
    <glyph glyph-name="uni00B9" unicode="&#xb9;" horiz-adv-x="253" 
d="M42 592v65q60 0 79 43h68v-350h-72v262q-26 -20 -75 -20z" />
    <glyph glyph-name="ordmasculine" unicode="&#xba;" horiz-adv-x="457" 
d="M413 475q0 -84 -55 -133t-129 -49q-73 0 -129 48q-55 49 -55 134t55 133q55 49 128 49q74 0 129 -49q56 -48 56 -133zM153 396q31 -31 75 -31t75 31t31 78q0 48 -31 79q-31 32 -74.5 32t-74.5 -32q-31 -31 -31 -79q0 -46 30 -78z" />
    <glyph glyph-name="guillemotright" unicode="&#xbb;" horiz-adv-x="552" 
d="M192 275l-159 206h117l163 -206l-163 -206h-117zM387 275l-159 206h117l163 -206l-163 -206h-117z" />
    <glyph glyph-name="onequarter" unicode="&#xbc;" horiz-adv-x="737" 
d="M42 592v65q60 0 79 43h68v-350h-72v262q-26 -20 -75 -20zM614 662l-435 -665l-62 42l435 665zM574 62h-164v59l164 229h73v-229h37v-59h-37v-62h-73v62zM574 121v130l-94 -130h94z" />
    <glyph glyph-name="onehalf" unicode="&#xbd;" horiz-adv-x="765" 
d="M42 592v65q60 0 79 43h68v-350h-72v262q-26 -20 -75 -20zM614 662l-435 -665l-62 42l435 665zM470 0v47l130 127q40 39 40 77q0 21 -13.5 33.5t-37.5 12.5q-23 0 -37.5 -13.5t-14.5 -36.5q0 -16 4 -23l-66 -9q-6 13 -6 37q0 42 33 73q35 32 87 32q57 0 89.5 -28t32.5 -75
q0 -59 -64 -122l-72 -71h139v-61h-244z" />
    <glyph glyph-name="threequarters" unicode="&#xbe;" horiz-adv-x="807" 
d="M673 662l-435 -665l-62 42l435 665zM643 62h-164v59l164 229h73v-229h37v-59h-37v-62h-73v62zM643 121v130l-94 -130h94zM54 480l68 -14q-3 -9 -3 -19q0 -20 15.5 -31.5t42.5 -11.5t42.5 14t15.5 38q0 54 -88 54v53q73 0 73 48q3 25 -23 35t-51.5 -0.5t-23.5 -36.5
q0 -2 2 -16l-61 -9q-5 18 -5 31q0 38 32 65t82 27q54 0 85.5 -23.5t31.5 -62.5q0 -49 -48 -77q30 -9 47.5 -33t17.5 -57q0 -51 -36.5 -81t-94.5 -30q-56 0 -91.5 29.5t-35.5 73.5q0 20 6 34z" />
    <glyph glyph-name="questiondown" unicode="&#xbf;" horiz-adv-x="543" 
d="M228 294h106v-17q0 -42 -20.5 -77.5t-68.5 -74.5q-53 -44 -73 -76t-20 -74q0 -44 34 -71.5t87 -27.5t87.5 29.5t34.5 80.5q0 19 -5 42l95 19q12 -29 12 -69q0 -78 -63 -137q-62 -59 -160 -59q-103 0 -164 52q-60 52 -60 135q0 61 27 106q27 47 100 108q51 44 51 111z
M225 496h112v-119h-112v119z" />
    <glyph glyph-name="Agrave" unicode="&#xc0;" horiz-adv-x="680" 
d="M120 0h-114l280 700h108l280 -700h-114l-75 195h-290zM364 510l-24 67l-24 -67l-85 -221h218zM183 907h131l66 -148h-85z" />
    <glyph glyph-name="Aacute" unicode="&#xc1;" horiz-adv-x="680" 
d="M120 0h-114l280 700h108l280 -700h-114l-75 195h-290zM364 510l-24 67l-24 -67l-85 -221h218zM386 759h-85l66 148h131z" />
    <glyph glyph-name="Acircumflex" unicode="&#xc2;" horiz-adv-x="680" 
d="M120 0h-114l280 700h108l280 -700h-114l-75 195h-290zM364 510l-24 67l-24 -67l-85 -221h218zM277 759h-81l104 148h80l105 -148h-82l-63 65z" />
    <glyph glyph-name="Atilde" unicode="&#xc3;" horiz-adv-x="680" 
d="M120 0h-114l280 700h108l280 -700h-114l-75 195h-290zM364 510l-24 67l-24 -67l-85 -221h218zM266 826q-25 0 -25 -24q0 -13 7 -26l-67 -14q-13 20 -13 51q0 38 27.5 61.5t65.5 23.5q35 0 65 -16.5t51.5 -33t36.5 -16.5q11 0 18 7t7 17q0 11 -7 26l67 14q13 -20 13 -51
q0 -38 -27.5 -61.5t-65.5 -23.5q-36 -1 -66 16t-51.5 34t-35.5 16z" />
    <glyph glyph-name="Adieresis" unicode="&#xc4;" horiz-adv-x="680" 
d="M120 0h-114l280 700h108l280 -700h-114l-75 195h-290zM364 510l-24 67l-24 -67l-85 -221h218zM477 786h-105v108h105v-108zM308 786h-105v108h105v-108z" />
    <glyph glyph-name="Aring" unicode="&#xc5;" horiz-adv-x="680" 
d="M120 0h-114l280 700h108l280 -700h-114l-75 195h-290zM364 510l-24 67l-24 -67l-85 -221h218zM271 771q-27 29 -27 68t28 67t68 28t68 -28t28 -67t-28 -67t-68 -28t-69 27zM312 867q-11 -11 -11 -28t10 -29q11 -11 28.5 -11t28.5 11t11 28.5t-11 28.5q-11 12 -28.5 12
t-27.5 -12z" />
    <glyph glyph-name="AE" unicode="&#xc6;" horiz-adv-x="959" 
d="M897 0h-463v195h-230l-85 -195h-113l314 700h574v-96h-352v-194h324v-96h-324v-218h355v-96zM434 604h-50l-138 -315h188v315z" />
    <glyph glyph-name="Ccedilla" unicode="&#xc7;" horiz-adv-x="757" 
d="M353 -108l-34 31l24 67q-130 19 -211 117q-81 97 -81 243q0 158 102 261t250 103q103 0 182.5 -49t116.5 -132l-86 -62q-75 145 -215 145q-100 0 -170 -76t-70 -191q0 -113 68 -190q67 -75 171 -75q145 0 221 145l83 -59q-60 -96 -128 -140q-70 -44 -178 -44l-22 -39
q16 9 41 9q33 0 55 -21.5t22 -55.5q0 -38 -26.5 -60.5t-66.5 -22.5q-34 0 -58.5 16.5t-30.5 43.5l57 15q7 -24 33 -24q13 0 21 8.5t8 22.5q0 32 -33 32q-26 0 -45 -18z" />
    <glyph glyph-name="Egrave" unicode="&#xc8;" horiz-adv-x="605" 
d="M544 0h-463v700h460v-96h-352v-194h324v-96h-324v-218h355v-96zM191 907h131l66 -148h-85z" />
    <glyph glyph-name="Eacute" unicode="&#xc9;" horiz-adv-x="605" 
d="M544 0h-463v700h460v-96h-352v-194h324v-96h-324v-218h355v-96zM329 759h-85l66 148h131z" />
    <glyph glyph-name="Ecircumflex" unicode="&#xca;" horiz-adv-x="605" 
d="M544 0h-463v700h460v-96h-352v-194h324v-96h-324v-218h355v-96zM252 759h-81l104 148h80l105 -148h-82l-63 65z" />
    <glyph glyph-name="Edieresis" unicode="&#xcb;" horiz-adv-x="605" 
d="M544 0h-463v700h460v-96h-352v-194h324v-96h-324v-218h355v-96zM452 786h-105v108h105v-108zM283 786h-105v108h105v-108z" />
    <glyph glyph-name="Igrave" unicode="&#xcc;" horiz-adv-x="270" 
d="M189 0h-108v700h108v-700zM-8 907h131l66 -148h-85z" />
    <glyph glyph-name="Iacute" unicode="&#xcd;" horiz-adv-x="270" 
d="M189 0h-108v700h108v-700zM166 759h-85l66 148h131z" />
    <glyph glyph-name="Icircumflex" unicode="&#xce;" horiz-adv-x="270" 
d="M189 0h-108v700h108v-700zM72 759h-81l104 148h80l105 -148h-82l-63 65z" />
    <glyph glyph-name="Idieresis" unicode="&#xcf;" horiz-adv-x="270" 
d="M189 0h-108v700h108v-700zM272 786h-105v108h105v-108zM103 786h-105v108h105v-108z" />
    <glyph glyph-name="Eth" unicode="&#xd0;" horiz-adv-x="735" 
d="M114 305h-77v90h77v305h202q164 0 267 -92q102 -92 102 -258q0 -168 -102 -259q-101 -91 -267 -91h-202v305zM222 98h96q121 0 189 65t68 187t-68 187t-189 65h-96v-207h154v-90h-154v-207z" />
    <glyph glyph-name="Ntilde" unicode="&#xd1;" horiz-adv-x="720" 
d="M185 0h-104v700h110l314 -488q23 -37 30 -53v541h104v-700h-110l-314 488q-25 37 -30 53v-541zM286 826q-11 0 -18 -7t-7 -17q0 -13 7 -26l-67 -14q-13 20 -13 51q0 38 27.5 61.5t65.5 23.5q62 0 93 -33q35 -33 60 -33q10 0 17.5 7t7.5 17q0 13 -7 26l67 14
q13 -22 13 -51q0 -38 -27 -61.5t-66 -23.5q-36 0 -65.5 16.5t-51 33t-36.5 16.5z" />
    <glyph glyph-name="Ograve" unicode="&#xd2;" 
d="M649 610q100 -101 100 -261q0 -158 -100 -261q-99 -102 -249 -102q-148 0 -249 102q-100 103 -100 261q0 159 100 262t249 103q150 0 249 -104zM229 157q67 -73 171 -73t171 73q68 74 68 192q0 119 -68 193t-171 74t-171 -74t-68 -193q0 -118 68 -192zM272 907h131
l66 -148h-85z" />
    <glyph glyph-name="Oacute" unicode="&#xd3;" 
d="M649 610q100 -101 100 -261q0 -158 -100 -261q-99 -102 -249 -102q-148 0 -249 102q-100 103 -100 261q0 159 100 262t249 103q150 0 249 -104zM229 157q67 -73 171 -73t171 73q68 74 68 192q0 119 -68 193t-171 74t-171 -74t-68 -193q0 -118 68 -192zM417 759h-85
l66 148h131z" />
    <glyph glyph-name="Ocircumflex" unicode="&#xd4;" 
d="M649 610q100 -101 100 -261q0 -158 -100 -261q-99 -102 -249 -102q-148 0 -249 102q-100 103 -100 261q0 159 100 262t249 103q150 0 249 -104zM229 157q67 -73 171 -73t171 73q68 74 68 192q0 119 -68 193t-171 74t-171 -74t-68 -193q0 -118 68 -192zM337 759h-81
l104 148h80l105 -148h-82l-63 65z" />
    <glyph glyph-name="Otilde" unicode="&#xd5;" 
d="M649 610q100 -101 100 -261q0 -158 -100 -261q-99 -102 -249 -102q-148 0 -249 102q-100 103 -100 261q0 159 100 262t249 103q150 0 249 -104zM229 157q67 -73 171 -73t171 73q68 74 68 192q0 119 -68 193t-171 74t-171 -74t-68 -193q0 -118 68 -192zM326 826
q-11 0 -18 -7t-7 -17q0 -13 7 -26l-67 -14q-13 22 -13 51q0 39 26.5 62t66.5 23q32 0 56.5 -10.5t37 -22.5t28 -22.5t31.5 -10.5q10 0 17.5 7t7.5 17q0 13 -7 26l67 14q13 -22 13 -51q0 -38 -27 -61.5t-66 -23.5q-63 0 -94 33t-59 33z" />
    <glyph glyph-name="Odieresis" unicode="&#xd6;" 
d="M649 610q100 -101 100 -261q0 -158 -100 -261q-99 -102 -249 -102q-148 0 -249 102q-100 103 -100 261q0 159 100 262t249 103q150 0 249 -104zM229 157q67 -73 171 -73t171 73q68 74 68 192q0 119 -68 193t-171 74t-171 -74t-68 -193q0 -118 68 -192zM537 786h-105v108
h105v-108zM368 786h-105v108h105v-108z" />
    <glyph glyph-name="multiply" unicode="&#xd7;" horiz-adv-x="531" 
d="M266 307l-129 -129l-58 58l129 128l-129 129l58 58l129 -129l129 130l58 -58l-129 -130l129 -129l-58 -58z" />
    <glyph glyph-name="Oslash" unicode="&#xd8;" 
d="M749 350q0 -159 -100 -262q-99 -102 -249 -102q-65 0 -126 23l-30 -57l-81 45l29 56q-67 51 -104 127.5t-37 169.5q0 158 100 261t249 103q66 0 126 -23l30 57l81 -45l-29 -56q66 -49 103.5 -127t37.5 -170zM161 350q0 -129 80 -204l239 457q-38 13 -80 13
q-103 0 -171 -74t-68 -192zM400 84q104 0 171 73q68 74 68 193q0 129 -80 204l-239 -457q36 -13 80 -13z" />
    <glyph glyph-name="Ugrave" unicode="&#xd9;" horiz-adv-x="686" 
d="M508 700h108v-451q0 -124 -76 -194q-75 -69 -197 -69q-121 0 -198 69q-75 71 -75 194v451h108v-448q0 -75 45 -121.5t120 -46.5t120 46.5t45 121.5v448zM215 907h131l66 -148h-85z" />
    <glyph glyph-name="Uacute" unicode="&#xda;" horiz-adv-x="686" 
d="M508 700h108v-451q0 -124 -76 -194q-75 -69 -197 -69q-121 0 -198 69q-75 71 -75 194v451h108v-448q0 -75 45 -121.5t120 -46.5t120 46.5t45 121.5v448zM360 759h-85l66 148h131z" />
    <glyph glyph-name="Ucircumflex" unicode="&#xdb;" horiz-adv-x="686" 
d="M508 700h108v-451q0 -124 -76 -194q-75 -69 -197 -69q-121 0 -198 69q-75 71 -75 194v451h108v-448q0 -75 45 -121.5t120 -46.5t120 46.5t45 121.5v448zM280 759h-81l104 148h80l105 -148h-82l-63 65z" />
    <glyph glyph-name="Udieresis" unicode="&#xdc;" horiz-adv-x="686" 
d="M508 700h108v-451q0 -124 -76 -194q-75 -69 -197 -69q-121 0 -198 69q-75 71 -75 194v451h108v-448q0 -75 45 -121.5t120 -46.5t120 46.5t45 121.5v448zM480 786h-105v108h105v-108zM311 786h-105v108h105v-108z" />
    <glyph glyph-name="Yacute" unicode="&#xdd;" horiz-adv-x="577" 
d="M343 0h-108v281l-231 419h119l144 -273q12 -19 22 -47l22 47l144 273h119l-231 -419v-281zM296 759h-85l66 148h131z" />
    <glyph glyph-name="Thorn" unicode="&#xde;" horiz-adv-x="688" 
d="M189 0h-108v700h108v-127h198q115 0 183 -60q69 -59 69 -163t-67.5 -163.5t-184.5 -59.5h-198v-127zM383 477h-194v-254h194q71 0 109.5 33t38.5 93t-38.5 94t-109.5 34z" />
    <glyph glyph-name="germandbls" unicode="&#xdf;" horiz-adv-x="598" 
d="M275 339h-27v86h29q58 0 93.5 29.5t35.5 80.5q0 41 -29.5 66t-74.5 25q-48 0 -79 -32.5t-31 -89.5v-504h-102v414h-67v82h67v14q0 97 62 150q63 54 150 54q90 0 146 -48q56 -47 56 -118q0 -111 -111 -156q159 -52 159 -202q0 -88 -54 -147q-54 -57 -139 -57
q-87 0 -147 48l47 82q40 -40 92 -40q43 0 71 32.5t28 83.5q0 70 -51 108q-49 39 -124 39z" />
    <glyph glyph-name="agrave" unicode="&#xe0;" horiz-adv-x="555" 
d="M512 0h-102q-27 31 -28 87q-50 -101 -165 -101q-75 0 -122 42.5t-47 110.5q0 67 47.5 109t127.5 54l157 25v21q0 86 -104 86q-49 0 -76 -18t-27 -47q0 -5 2 -15l-91 -31q-8 21 -8 40q0 61 55 104t145 43q101 0 153.5 -43t52.5 -125v-218q0 -74 30 -124zM233 71
q65 0 106 47t41 120v14l-134 -23q-96 -17 -96 -84q0 -34 23 -54t60 -20zM139 704h131l66 -148h-85z" />
    <glyph glyph-name="aacute" unicode="&#xe1;" horiz-adv-x="555" 
d="M512 0h-102q-27 31 -28 87q-50 -101 -165 -101q-75 0 -122 42.5t-47 110.5q0 67 47.5 109t127.5 54l157 25v21q0 86 -104 86q-49 0 -76 -18t-27 -47q0 -5 2 -15l-91 -31q-8 21 -8 40q0 61 55 104t145 43q101 0 153.5 -43t52.5 -125v-218q0 -74 30 -124zM233 71
q65 0 106 47t41 120v14l-134 -23q-96 -17 -96 -84q0 -34 23 -54t60 -20zM294 556h-85l66 148h131z" />
    <glyph glyph-name="acircumflex" unicode="&#xe2;" horiz-adv-x="555" 
d="M512 0h-102q-27 31 -28 87q-50 -101 -165 -101q-75 0 -122 42.5t-47 110.5q0 67 47.5 109t127.5 54l157 25v21q0 86 -104 86q-49 0 -76 -18t-27 -47q0 -5 2 -15l-91 -31q-8 21 -8 40q0 61 55 104t145 43q101 0 153.5 -43t52.5 -125v-218q0 -74 30 -124zM233 71
q65 0 106 47t41 120v14l-134 -23q-96 -17 -96 -84q0 -34 23 -54t60 -20zM214 555h-81l104 148h80l105 -148h-82l-63 65z" />
    <glyph glyph-name="atilde" unicode="&#xe3;" horiz-adv-x="555" 
d="M512 0h-102q-27 31 -28 87q-50 -101 -165 -101q-75 0 -122 42.5t-47 110.5q0 67 47.5 109t127.5 54l157 25v21q0 86 -104 86q-49 0 -76 -18t-27 -47q0 -5 2 -15l-91 -31q-8 21 -8 40q0 61 55 104t145 43q101 0 153.5 -43t52.5 -125v-218q0 -74 30 -124zM233 71
q65 0 106 47t41 120v14l-134 -23q-96 -17 -96 -84q0 -34 23 -54t60 -20zM197 622q-10 0 -17.5 -7t-7.5 -17q0 -13 7 -26l-67 -14q-13 22 -13 51q0 38 27 61.5t66 23.5q32 0 56.5 -10.5t37 -22.5t28 -22.5t31.5 -10.5q10 0 17.5 7t7.5 17q0 13 -7 26l67 14q13 -22 13 -51
q0 -38 -27 -61.5t-66 -23.5q-32 0 -56.5 10.5t-37 22.5t-28 22.5t-31.5 10.5z" />
    <glyph glyph-name="adieresis" unicode="&#xe4;" horiz-adv-x="555" 
d="M512 0h-102q-27 31 -28 87q-50 -101 -165 -101q-75 0 -122 42.5t-47 110.5q0 67 47.5 109t127.5 54l157 25v21q0 86 -104 86q-49 0 -76 -18t-27 -47q0 -5 2 -15l-91 -31q-8 21 -8 40q0 61 55 104t145 43q101 0 153.5 -43t52.5 -125v-218q0 -74 30 -124zM233 71
q65 0 106 47t41 120v14l-134 -23q-96 -17 -96 -84q0 -34 23 -54t60 -20zM414 582h-105v108h105v-108zM245 582h-105v108h105v-108z" />
    <glyph glyph-name="aring" unicode="&#xe5;" horiz-adv-x="555" 
d="M512 0h-102q-27 31 -28 87q-50 -101 -165 -101q-75 0 -122 42.5t-47 110.5q0 67 47.5 109t127.5 54l157 25v21q0 86 -104 86q-49 0 -76 -18t-27 -47q0 -5 2 -15l-91 -31q-8 21 -8 40q0 61 55 104t145 43q101 0 153.5 -43t52.5 -125v-218q0 -74 30 -124zM233 71
q65 0 106 47t41 120v14l-134 -23q-96 -17 -96 -84q0 -34 23 -54t60 -20zM277 730q39 0 67.5 -28t28.5 -67t-28 -67t-68 -28t-68 28t-28 67t28 67t68 28zM249 663q-11 -11 -11 -28.5t11 -28.5t28.5 -11t27.5 11q11 11 11 28.5t-11 28.5q-10 12 -27.5 12t-28.5 -12z" />
    <glyph glyph-name="ae" unicode="&#xe6;" horiz-adv-x="918" 
d="M877 262v-36h-393q3 -67 44.5 -109t106.5 -42q54 0 88.5 25t59.5 78l79 -47q-70 -145 -228 -145q-67 0 -123 32t-89 88q-27 -58 -80 -89t-117 -31q-77 0 -127 42t-50 108q0 77 57.5 122.5t157.5 45.5h117v29q0 53 -25 77t-79 24q-49 0 -76.5 -18t-27.5 -47q0 -5 2 -15
l-91 -31q-8 21 -8 40q0 60 55 103q56 44 146 44q123 0 174 -82q73 82 187 82q107 0 173 -70q67 -68 67 -178zM233 71q67 0 107 41t40 106v8h-102q-128 0 -128 -83q0 -35 22 -53.5t61 -18.5zM635 428q-54 0 -95.5 -34.5t-55.5 -89.5h296q-6 56 -47.5 90t-97.5 34z" />
    <glyph glyph-name="ccedilla" unicode="&#xe7;" horiz-adv-x="559" 
d="M252 -108l-34 31l24 69q-90 18 -147 87q-56 70 -56 169q0 114 75 188q76 74 182 74q80 0 138.5 -35.5t85.5 -99.5l-81 -54q-47 95 -142 95q-67 0 -110.5 -46t-43.5 -122q0 -77 42.5 -122.5t111.5 -45.5q52 0 86 24t62 76l79 -51q-72 -143 -228 -143l-21 -39q17 9 41 9
q34 0 55.5 -21.5t21.5 -55.5q0 -38 -26.5 -60.5t-66.5 -22.5q-34 0 -58 16t-31 44l57 15q8 -24 33 -24q12 0 20.5 8.5t8.5 22.5q0 32 -33 32q-25 0 -45 -18z" />
    <glyph glyph-name="egrave" unicode="&#xe8;" horiz-adv-x="574" 
d="M534 262v-36h-393q3 -67 44.5 -109t106.5 -42q55 0 89 25t59 78l79 -47q-70 -145 -230 -145q-103 0 -177 74q-73 73 -73 188q0 114 74 188t181 74t173 -70q67 -68 67 -178zM292 428q-54 0 -96 -35t-55 -89h296q-6 56 -47 90t-98 34zM159 703h131l66 -148h-85z" />
    <glyph glyph-name="eacute" unicode="&#xe9;" horiz-adv-x="574" 
d="M534 262v-36h-393q3 -67 44.5 -109t106.5 -42q55 0 89 25t59 78l79 -47q-70 -145 -230 -145q-103 0 -177 74q-73 73 -73 188q0 114 74 188t181 74t173 -70q67 -68 67 -178zM292 428q-54 0 -96 -35t-55 -89h296q-6 56 -47 90t-98 34zM304 555h-85l66 148h131z" />
    <glyph glyph-name="ecircumflex" unicode="&#xea;" horiz-adv-x="574" 
d="M534 262v-36h-393q3 -67 44.5 -109t106.5 -42q55 0 89 25t59 78l79 -47q-70 -145 -230 -145q-103 0 -177 74q-73 73 -73 188q0 114 74 188t181 74t173 -70q67 -68 67 -178zM292 428q-54 0 -96 -35t-55 -89h296q-6 56 -47 90t-98 34zM224 555h-81l104 148h80l105 -148h-82
l-63 65z" />
    <glyph glyph-name="edieresis" unicode="&#xeb;" horiz-adv-x="574" 
d="M534 262v-36h-393q3 -67 44.5 -109t106.5 -42q55 0 89 25t59 78l79 -47q-70 -145 -230 -145q-103 0 -177 74q-73 73 -73 188q0 114 74 188t181 74t173 -70q67 -68 67 -178zM292 428q-54 0 -96 -35t-55 -89h296q-6 56 -47 90t-98 34zM424 582h-105v108h105v-108zM255 582
h-105v108h105v-108z" />
    <glyph glyph-name="igrave" unicode="&#xec;" horiz-adv-x="239" 
d="M171 0h-102v496h102v-496zM-26 703h131l66 -148h-85z" />
    <glyph glyph-name="iacute" unicode="&#xed;" horiz-adv-x="239" 
d="M171 0h-102v496h102v-496zM154 555h-85l66 148h131z" />
    <glyph glyph-name="icircumflex" unicode="&#xee;" horiz-adv-x="239" 
d="M171 0h-102v496h102v-496zM57 555h-81l104 148h80l105 -148h-82l-63 65z" />
    <glyph glyph-name="idieresis" unicode="&#xef;" horiz-adv-x="239" 
d="M171 0h-102v496h102v-496zM257 582h-105v108h105v-108zM88 582h-105v108h105v-108z" />
    <glyph glyph-name="eth" unicode="&#xf0;" horiz-adv-x="585" 
d="M338 548l-113 -44l-27 71l72 28q-58 42 -120 67l47 76q108 -53 172 -105l102 40l28 -71l-71 -27q112 -124 112 -304q0 -141 -69 -217t-179 -76q-106 0 -176 64q-71 65 -71 174q0 108 71 173t166 65q100 0 152 -66q-21 78 -96 152zM190 113q43 -39 103 -39q59 0 102 39
q43 40 43 110q0 71 -43 111t-102 40q-60 0 -103 -40t-43 -111q0 -70 43 -110z" />
    <glyph glyph-name="ntilde" unicode="&#xf1;" horiz-adv-x="584" 
d="M514 337v-337h-102v307q0 51 -29 80t-81 29q-56 0 -93 -43t-37 -111v-262h-102v496h102v-83q27 45 72 71t97 26q76 0 124.5 -46.5t48.5 -126.5zM218 622q-25 0 -25 -24q0 -13 7 -26l-67 -14q-13 20 -13 51q0 38 27.5 61.5t65.5 23.5q35 0 65 -16.5t51.5 -33t36.5 -16.5
q25 0 25 24q0 13 -7 26l67 14q13 -20 13 -51q0 -38 -27.5 -61.5t-65.5 -23.5q-36 -1 -66 16t-51.5 34t-35.5 16z" />
    <glyph glyph-name="ograve" unicode="&#xf2;" horiz-adv-x="607" 
d="M304 -14q-107 0 -186 70t-79 192t79 192t186 70q103 3 184 -70t81 -192t-81 -192t-184 -70zM189 127q47 -47 114 -47q68 0 115 47t47 121t-47 121t-115 47q-67 0 -114 -47q-46 -46 -46 -121t46 -121zM159 703h131l66 -148h-85z" />
    <glyph glyph-name="oacute" unicode="&#xf3;" horiz-adv-x="607" 
d="M304 -14q-107 0 -186 70t-79 192t79 192t186 70q103 3 184 -70t81 -192t-81 -192t-184 -70zM189 127q47 -47 114 -47q68 0 115 47t47 121t-47 121t-115 47q-67 0 -114 -47q-46 -46 -46 -121t46 -121zM338 555h-85l66 148h131z" />
    <glyph glyph-name="ocircumflex" unicode="&#xf4;" horiz-adv-x="607" 
d="M304 -14q-107 0 -186 70t-79 192t79 192t186 70q103 3 184 -70t81 -192t-81 -192t-184 -70zM189 127q47 -47 114 -47q68 0 115 47t47 121t-47 121t-115 47q-67 0 -114 -47q-46 -46 -46 -121t46 -121zM241 555h-81l104 148h80l105 -148h-82l-63 65z" />
    <glyph glyph-name="otilde" unicode="&#xf5;" horiz-adv-x="607" 
d="M304 -14q-107 0 -186 70t-79 192t79 192t186 70q103 3 184 -70t81 -192t-81 -192t-184 -70zM189 127q47 -47 114 -47q68 0 115 47t47 121t-47 121t-115 47q-67 0 -114 -47q-46 -46 -46 -121t46 -121zM230 622q-10 0 -17.5 -7t-7.5 -17q0 -13 7 -26l-67 -14q-13 20 -13 51
q0 38 27 61.5t66 23.5q35 0 65 -16.5t51 -33t37 -16.5q11 0 18 7t7 17q0 13 -7 26l67 14q13 -20 13 -51q0 -38 -27.5 -61.5t-65.5 -23.5q-61 0 -94 33q-31 33 -59 33z" />
    <glyph glyph-name="odieresis" unicode="&#xf6;" horiz-adv-x="607" 
d="M304 -14q-107 0 -186 70t-79 192t79 192t186 70q103 3 184 -70t81 -192t-81 -192t-184 -70zM189 127q47 -47 114 -47q68 0 115 47t47 121t-47 121t-115 47q-67 0 -114 -47q-46 -46 -46 -121t46 -121zM441 582h-105v108h105v-108zM272 582h-105v108h105v-108z" />
    <glyph glyph-name="divide" unicode="&#xf7;" horiz-adv-x="534" 
d="M324 364h-114v116h114v-116zM324 0h-114v116h114v-116zM491 199h-447v82h447v-82z" />
    <glyph glyph-name="oslash" unicode="&#xf8;" horiz-adv-x="607" 
d="M569 248q0 -119 -81 -192t-184 -70q-48 0 -97 17l-24 -41l-70 43l22 37q-96 74 -96 206q0 122 79 192t186 70q49 0 97 -17l24 41l70 -43l-22 -37q96 -75 96 -206zM143 248q0 -71 44 -118l164 279q-20 7 -47 7q-68 0 -115 -47q-46 -46 -46 -121zM304 80q67 0 114 47
t47 121q0 71 -44 118l-164 -279q18 -7 47 -7z" />
    <glyph glyph-name="ugrave" unicode="&#xf9;" horiz-adv-x="584" 
d="M70 177v319h102v-298q0 -57 28.5 -87.5t81.5 -30.5q57 0 93.5 41.5t36.5 106.5v268h102v-496h-102v80q-52 -94 -161 -94q-81 0 -131 50t-50 141zM164 703h131l66 -148h-85z" />
    <glyph glyph-name="uacute" unicode="&#xfa;" horiz-adv-x="584" 
d="M70 177v319h102v-298q0 -57 28.5 -87.5t81.5 -30.5q57 0 93.5 41.5t36.5 106.5v268h102v-496h-102v80q-52 -94 -161 -94q-81 0 -131 50t-50 141zM309 555h-85l66 148h131z" />
    <glyph glyph-name="ucircumflex" unicode="&#xfb;" horiz-adv-x="584" 
d="M70 177v319h102v-298q0 -57 28.5 -87.5t81.5 -30.5q57 0 93.5 41.5t36.5 106.5v268h102v-496h-102v80q-52 -94 -161 -94q-81 0 -131 50t-50 141zM229 555h-81l104 148h80l105 -148h-82l-63 65z" />
    <glyph glyph-name="udieresis" unicode="&#xfc;" horiz-adv-x="584" 
d="M70 177v319h102v-298q0 -57 28.5 -87.5t81.5 -30.5q57 0 93.5 41.5t36.5 106.5v268h102v-496h-102v80q-52 -94 -161 -94q-81 0 -131 50t-50 141zM429 582h-105v108h105v-108zM260 582h-105v108h105v-108z" />
    <glyph glyph-name="yacute" unicode="&#xfd;" horiz-adv-x="520" 
d="M63 -200l16 93q38 -16 64 -8.5t41 51.5l23 61l-202 499h117l140 -358l139 358h113l-240 -596q-44 -111 -139 -111q-37 0 -72 11zM277 555h-85l66 148h131z" />
    <glyph glyph-name="thorn" unicode="&#xfe;" horiz-adv-x="615" 
d="M172 -204h-102v904h102v-280q25 39 73 64.5t103 25.5q96 0 162 -72q67 -70 67 -190q0 -117 -68 -190q-68 -72 -170 -72q-53 0 -98 22t-69 60v-272zM428 368q-43 48 -109 48q-64 0 -109 -48q-45 -46 -45 -120q0 -73 45 -121q45 -47 109 -47q65 0 109 47q45 48 45 121
q0 74 -45 120z" />
    <glyph glyph-name="ydieresis" unicode="&#xff;" horiz-adv-x="520" 
d="M63 -200l16 93q38 -16 64 -8.5t41 51.5l23 61l-202 499h117l140 -358l139 358h113l-240 -596q-44 -111 -139 -111q-37 0 -72 11zM397 582h-105v108h105v-108zM228 582h-105v108h105v-108z" />
    <glyph glyph-name="OE" unicode="&#x152;" horiz-adv-x="1163" 
d="M1102 0h-463v106q-89 -120 -239 -120q-148 0 -249 102q-100 103 -100 261q0 159 100 262t249 103q160 0 239 -109v95h460v-96h-352v-194h324v-96h-324v-218h355v-96zM229 157q67 -73 171 -73t171 73q68 74 68 192q0 119 -68 193t-171 74t-171 -74t-68 -193
q0 -118 68 -192z" />
    <glyph glyph-name="oe" unicode="&#x153;" horiz-adv-x="1005" 
d="M964 262v-36h-393q3 -67 44.5 -109t106.5 -42q54 0 88.5 25t59.5 78l79 -47q-70 -145 -230 -145q-61 0 -114 27t-87 75q-38 -49 -94.5 -75.5t-119.5 -26.5q-107 0 -186 70t-79 192t79 192t186 70q63 0 119.5 -26.5t94.5 -76.5q35 49 89 76t117 27q107 0 173 -70
q67 -68 67 -178zM189 127q47 -47 114 -47q68 0 115 47t47 121t-47 121t-115 47q-67 0 -114 -47q-46 -46 -46 -121t46 -121zM722 428q-54 0 -95.5 -34.5t-55.5 -89.5h296q-6 56 -47.5 90t-97.5 34z" />
    <glyph glyph-name="Ydieresis" unicode="&#x178;" horiz-adv-x="577" 
d="M343 0h-108v281l-231 419h119l144 -273q12 -19 22 -47l22 47l144 273h119l-231 -419v-281zM426 786h-105v108h105v-108zM257 786h-105v108h105v-108z" />
    <glyph glyph-name="circumflex" unicode="&#x2c6;" horiz-adv-x="391" 
d="M132 555h-81l104 148h80l105 -148h-82l-63 65z" />
    <glyph glyph-name="tilde" unicode="&#x2dc;" horiz-adv-x="472" 
d="M162 622q-11 0 -18 -7t-7 -17q0 -13 7 -26l-67 -14q-13 20 -13 51q0 38 27.5 61.5t65.5 23.5q62 0 93 -33q33 -33 60 -33q10 0 17.5 7t7.5 17q0 13 -7 26l67 14q13 -22 13 -51q0 -38 -27 -61.5t-66 -23.5q-36 0 -65.5 16.5t-51 33t-36.5 16.5z" />
    <glyph glyph-name="uni2000" unicode="&#x2000;" horiz-adv-x="467" 
 />
    <glyph glyph-name="uni2001" unicode="&#x2001;" horiz-adv-x="934" 
 />
    <glyph glyph-name="uni2002" unicode="&#x2002;" horiz-adv-x="467" 
 />
    <glyph glyph-name="uni2003" unicode="&#x2003;" horiz-adv-x="934" 
 />
    <glyph glyph-name="uni2004" unicode="&#x2004;" horiz-adv-x="311" 
 />
    <glyph glyph-name="uni2005" unicode="&#x2005;" horiz-adv-x="233" 
 />
    <glyph glyph-name="uni2006" unicode="&#x2006;" horiz-adv-x="155" 
 />
    <glyph glyph-name="uni2007" unicode="&#x2007;" horiz-adv-x="155" 
 />
    <glyph glyph-name="uni2008" unicode="&#x2008;" horiz-adv-x="116" 
 />
    <glyph glyph-name="uni2009" unicode="&#x2009;" horiz-adv-x="187" 
 />
    <glyph glyph-name="uni200A" unicode="&#x200a;" horiz-adv-x="52" 
 />
    <glyph glyph-name="uni2010" unicode="&#x2010;" horiz-adv-x="462" 
d="M418 270h-374v82h374v-82z" />
    <glyph glyph-name="uni2011" unicode="&#x2011;" horiz-adv-x="462" 
d="M418 270h-374v82h374v-82z" />
    <glyph glyph-name="figuredash" unicode="&#x2012;" horiz-adv-x="462" 
d="M418 270h-374v82h374v-82z" />
    <glyph glyph-name="endash" unicode="&#x2013;" horiz-adv-x="547" 
d="M503 270h-459v82h459v-82z" />
    <glyph glyph-name="emdash" unicode="&#x2014;" horiz-adv-x="821" 
d="M778 270h-734v82h734v-82z" />
    <glyph glyph-name="quoteleft" unicode="&#x2018;" horiz-adv-x="204" 
d="M41 566l111 141l22 -16l-65 -125h46v-116h-114v116z" />
    <glyph glyph-name="quoteright" unicode="&#x2019;" horiz-adv-x="204" 
d="M164 584l-111 -141l-22 16l65 125h-46v116h114v-116z" />
    <glyph glyph-name="quotesinglbase" unicode="&#x201a;" horiz-adv-x="204" 
d="M164 0l-111 -141l-22 16l65 125h-46v116h114v-116z" />
    <glyph glyph-name="quotedblleft" unicode="&#x201c;" horiz-adv-x="362" 
d="M41 566l111 141l22 -16l-65 -125h46v-116h-114v116zM199 566l111 141l22 -16l-65 -125h46v-116h-114v116z" />
    <glyph glyph-name="quotedblright" unicode="&#x201d;" horiz-adv-x="362" 
d="M322 584l-111 -141l-22 16l65 125h-46v116h114v-116zM164 584l-111 -141l-22 16l65 125h-46v116h114v-116z" />
    <glyph glyph-name="quotedblbase" unicode="&#x201e;" horiz-adv-x="362" 
d="M322 0l-111 -141l-22 16l65 125h-46v116h114v-116zM164 0l-111 -141l-22 16l65 125h-46v116h114v-116z" />
    <glyph glyph-name="bullet" unicode="&#x2022;" horiz-adv-x="308" 
d="M79 200q-31 32 -31 75t31 74q32 32 75 32t74 -32q32 -31 32 -74t-32 -75q-31 -31 -74 -31t-75 31z" />
    <glyph glyph-name="ellipsis" unicode="&#x2026;" horiz-adv-x="581" 
d="M158 0h-114v116h114v-116zM348 0h-114v116h114v-116zM538 0h-114v116h114v-116z" />
    <glyph glyph-name="uni202F" unicode="&#x202f;" horiz-adv-x="187" 
 />
    <glyph glyph-name="guilsinglleft" unicode="&#x2039;" horiz-adv-x="356" 
d="M44 275l163 206h117l-159 -206l159 -206h-117z" />
    <glyph glyph-name="guilsinglright" unicode="&#x203a;" horiz-adv-x="356" 
d="M192 275l-159 206h117l163 -206l-163 -206h-117z" />
    <glyph glyph-name="uni205F" unicode="&#x205f;" horiz-adv-x="233" 
 />
    <glyph glyph-name="Euro" unicode="&#x20ac;" horiz-adv-x="774" 
d="M519 314l-36 -78h-247q24 -74 74.5 -113t120.5 -39q146 0 197 155l96 -36q-37 -104 -111 -160.5t-181 -56.5q-115 0 -196 66.5t-110 183.5h-87l36 78h38q-1 8 -1 36t1 36h-74l36 78h51q30 115 114 182q86 68 196 68q220 0 285 -195l-92 -42q-51 139 -194 139
q-69 0 -121.5 -40t-77.5 -112h283l-36 -78h-262q-1 -8 -1 -37q0 -28 1 -35h298z" />
    <glyph glyph-name="trademark" unicode="&#x2122;" horiz-adv-x="854" 
d="M154 638h-119v62h307v-62h-118v-338h-70v338zM458 300h-67v400h74l133 -321l133 321h74v-400h-67v255l-106 -255h-68l-106 255v-255z" />
    <glyph glyph-name="uni25FC" unicode="&#x25fc;" horiz-adv-x="494" 
d="M0 0v495h495v-495h-495z" />
    </font>
</defs>
</svg>
